<svg width="82" height="82" viewBox="0 0 82 82" fill="none" xmlns="http://www.w3.org/2000/svg">
<g clip-path="url(#clip0_624_1165)">
<path d="M68.1476 6.57837C61.8821 6.57837 56.9316 11.6062 56.9316 17.8717C56.9316 24.1372 61.9595 29.0877 68.1476 29.0877C74.3357 29.0877 79.4409 24.0598 79.4409 17.7943C79.4409 11.5289 74.4131 6.57837 68.1476 6.57837ZM68.1476 26.6124C63.2745 26.6124 59.3295 22.6675 59.3295 17.7943C59.3295 12.9212 63.3518 9.05362 68.1476 9.05362C73.0208 9.05362 76.9657 12.9985 76.9657 17.8717C76.9657 22.7448 73.0208 26.6124 68.1476 26.6124Z" fill="url(#paint0_linear_624_1165)"/>
<path d="M71.7054 19.5736C71.6281 19.3415 71.6281 19.1868 71.4734 18.9548C71.396 18.8001 71.3187 18.568 71.164 18.4133C71.0092 18.2586 70.9319 18.1039 70.7772 17.9492C70.6225 17.7945 70.4678 17.6398 70.2357 17.5624C70.081 17.4077 69.849 17.3304 69.6943 17.253C69.4622 17.1757 69.3075 17.021 69.0755 16.9436C68.8434 16.8663 68.6114 16.7889 68.4566 16.7116C68.3793 16.7116 68.2246 16.6342 68.1472 16.5569C68.0699 16.4795 67.9152 16.4795 67.8378 16.4022C67.7605 16.3248 67.6058 16.3248 67.5284 16.2475C67.4511 16.1701 67.3737 16.0927 67.2964 16.0154C67.219 15.938 67.1417 15.8607 67.1417 15.706C67.0643 15.6286 67.0643 15.4739 67.0643 15.3966C67.0643 15.2419 67.0643 15.1645 67.0643 15.0098C67.0643 14.9325 67.1417 14.7778 67.1417 14.7004C67.219 14.6231 67.219 14.4684 67.2964 14.391C67.3737 14.3137 67.4511 14.2363 67.5284 14.159C67.6058 14.0816 67.7605 14.0043 67.9152 14.0043C68.0699 13.9269 68.1472 13.9269 68.3019 13.9269C68.3793 13.9269 68.4566 13.9269 68.534 13.9269C68.6113 13.9269 68.6887 13.9269 68.7661 13.9269C68.9208 13.9269 68.9981 13.9269 69.1528 14.0043C69.3075 14.0043 69.4622 14.0816 69.5396 14.0816C69.6169 14.0816 69.7716 14.159 69.849 14.159C70.0037 14.159 70.081 14.2363 70.1584 14.2363L70.5451 14.391L70.6225 13.9269L70.7772 12.6893V12.3799L70.4678 12.3025C70.3904 12.3025 70.2357 12.2252 70.1584 12.2252C70.081 12.2252 70.0037 12.1478 69.849 12.1478C69.7716 12.1478 69.6169 12.0705 69.4622 12.0705C69.3075 12.0705 69.2302 11.9931 69.0755 11.9931H68.9981V10.9102V10.5234H68.6113H67.5284H67.1417V10.9102V12.0705H67.0643C66.8323 12.1478 66.6002 12.2252 66.3682 12.3799C66.1361 12.4572 65.9814 12.6119 65.8267 12.7666C65.672 12.9213 65.5173 13.076 65.3626 13.3081C65.2079 13.4628 65.1305 13.6949 65.0532 13.9269C64.9758 14.159 64.8985 14.391 64.8211 14.6231C64.7438 14.8551 64.7438 15.1645 64.7438 15.3966C64.7438 15.6286 64.7438 15.7833 64.8211 16.0154C64.8985 16.2475 64.8985 16.4022 65.0532 16.6342C65.1305 16.7889 65.2852 17.021 65.3626 17.1757C65.5173 17.3304 65.5946 17.4851 65.7493 17.6398C65.904 17.7945 66.0587 17.9492 66.2908 18.0265C66.4455 18.1812 66.6776 18.2586 66.8323 18.3359C67.0643 18.4133 67.2964 18.568 67.4511 18.6454C67.6831 18.7227 67.9152 18.8001 68.0699 18.8774C68.1472 18.8774 68.3019 18.9548 68.3793 19.0321C68.4566 19.1095 68.6114 19.1095 68.6887 19.1868C68.7661 19.2642 68.8434 19.3415 68.9208 19.3415C68.9981 19.4189 69.0755 19.4962 69.1528 19.5736C69.2302 19.6509 69.2302 19.7283 69.3075 19.883C69.3075 19.9603 69.3849 20.115 69.3849 20.2697C69.3849 20.4244 69.3849 20.5018 69.3849 20.6565C69.3849 20.7338 69.3075 20.8885 69.2302 20.9659C69.1528 21.0432 69.0755 21.1206 68.9981 21.198C68.9208 21.2753 68.8434 21.3527 68.6887 21.43C68.6114 21.5074 68.4566 21.5074 68.3793 21.5847C68.3019 21.5847 68.1472 21.6621 67.9925 21.6621C67.9152 21.6621 67.8378 21.6621 67.6831 21.6621C67.6058 21.6621 67.4511 21.6621 67.3737 21.6621C67.219 21.6621 67.0643 21.6621 66.987 21.6621C66.8323 21.6621 66.6776 21.5847 66.6002 21.5847C66.4455 21.5847 66.2908 21.5074 66.1361 21.43C65.9814 21.3527 65.8267 21.3527 65.672 21.2753C65.5946 21.2753 65.5173 21.198 65.4399 21.198C65.3626 21.198 65.2852 21.1206 65.2079 21.1206L64.7438 20.8885L64.6664 21.43L64.5117 22.8223V23.0544L64.7438 23.1317C65.0532 23.0544 65.2079 23.1317 65.4399 23.2091C65.5946 23.2864 65.8267 23.3638 65.9814 23.3638C66.1361 23.4411 66.3682 23.4411 66.6002 23.5185C66.8323 23.5959 66.987 23.5958 67.219 23.5958H67.3737V24.7561V25.1429H67.7605H68.8434H69.2302V24.7561V23.5185H69.3075C69.5396 23.4411 69.7716 23.3638 70.0037 23.2091C70.2357 23.1317 70.3904 22.977 70.6225 22.8223C70.7772 22.6676 70.9319 22.5129 71.0866 22.2809C71.2413 22.1262 71.3187 21.8941 71.4734 21.6621C71.5507 21.43 71.6281 21.198 71.7054 20.9659C71.7828 20.7338 71.7828 20.5018 71.7828 20.1924C71.7828 19.9603 71.7828 19.8056 71.7054 19.5736Z" fill="url(#paint1_linear_624_1165)"/>
<path d="M62.7319 30.5575C62.3452 30.0161 61.4943 29.9387 60.9528 30.3255L48.4219 40.3038L32.2554 33.5742C31.8687 33.4195 31.4045 33.4969 31.0951 33.7289L13.7684 46.1052C13.2269 46.4919 13.0722 47.2655 13.459 47.8069C13.691 48.1937 14.0778 48.3484 14.4646 48.3484C14.6966 48.3484 14.9287 48.271 15.1607 48.1163L31.946 36.1268L48.1898 42.8564C48.5766 43.0111 49.118 42.9338 49.4275 42.7017L62.4999 32.3366C63.0413 31.9498 63.1187 31.099 62.7319 30.5575Z" fill="url(#paint2_linear_624_1165)"/>
<path d="M80.8324 72.9459H75.1084V37.1322C75.1084 36.436 74.5669 35.8945 73.8707 35.8945H62.5001C61.8039 35.8945 61.2624 36.436 61.2624 37.1322V72.9459H57.0854V49.5084C57.0854 48.8122 56.544 48.2708 55.8478 48.2708H44.3998C43.7036 48.2708 43.1622 48.8122 43.1622 49.5084V72.9459H38.9852V47.652C38.9852 46.9558 38.4437 46.4143 37.7476 46.4143H26.3769C25.6807 46.4143 25.1393 46.9558 25.1393 47.652V72.9459H20.9623V54.923C20.9623 54.2269 20.4208 53.6854 19.7246 53.6854H8.27662C7.58045 53.6854 7.03899 54.2269 7.03899 54.923V72.9459H1.23762C0.541461 72.9459 0 73.4874 0 74.1835C0 74.8797 0.541461 75.4212 1.23762 75.4212H8.19926H19.5699H26.3769H37.7476H44.3998H55.7705H62.4227H73.7934H80.755C81.4512 75.4212 81.9926 74.8797 81.9926 74.1835C82.07 73.4874 81.5285 72.9459 80.8324 72.9459ZM18.4097 72.9459H9.51424V56.1606H18.4097V72.9459ZM36.5099 72.9459H27.6145V48.8896H36.5099V72.9459ZM54.5328 72.9459H45.6374V50.746H54.5328V72.9459ZM72.6331 72.9459H63.7377V38.3698H72.6331V72.9459Z" fill="url(#paint3_linear_624_1165)"/>
</g>
<defs>
<linearGradient id="paint0_linear_624_1165" x1="68.1863" y1="6.57837" x2="68.1863" y2="29.0877" gradientUnits="userSpaceOnUse">
<stop stop-color="#E31937"/>
<stop offset="1" stop-color="#9B1B08"/>
</linearGradient>
<linearGradient id="paint1_linear_624_1165" x1="68.1472" y1="10.5234" x2="68.1472" y2="25.1429" gradientUnits="userSpaceOnUse">
<stop stop-color="#E31937"/>
<stop offset="1" stop-color="#9B1B08"/>
</linearGradient>
<linearGradient id="paint2_linear_624_1165" x1="38.1089" y1="30.0837" x2="38.1089" y2="48.3484" gradientUnits="userSpaceOnUse">
<stop stop-color="#E31937"/>
<stop offset="1" stop-color="#9B1B08"/>
</linearGradient>
<linearGradient id="paint3_linear_624_1165" x1="41" y1="35.8945" x2="41" y2="75.4212" gradientUnits="userSpaceOnUse">
<stop stop-color="#E31937"/>
<stop offset="1" stop-color="#9B1B08"/>
</linearGradient>
<clipPath id="clip0_624_1165">
<rect width="82" height="82" fill="white"/>
</clipPath>
</defs>
</svg>
