<svg width="30" height="36" viewBox="0 0 30 36" fill="none" xmlns="http://www.w3.org/2000/svg">
<path fill-rule="evenodd" clip-rule="evenodd" d="M25.1522 19.2498H4.84767C2.42276 19.2498 0.45459 17.2734 0.45459 14.8484C0.45459 13.5114 1.04421 12.2657 2.06566 11.4353C1.87466 10.9287 1.7667 10.3889 1.7667 9.84083C1.7667 7.99723 2.90442 6.37785 4.58193 5.7301C4.57362 5.60554 4.56532 5.48097 4.56532 5.3564C4.56532 2.4083 6.97362 0 9.92172 0C12.4795 0 14.6387 1.77716 15.1619 4.21869C16.283 4.2519 17.3044 4.81661 17.9356 5.71349C18.6664 5.29827 19.4802 5.07405 20.3356 5.07405C23.0013 5.07405 25.1688 7.24152 25.1688 9.90727C25.1688 10.09 25.1522 10.2644 25.1356 10.4471H25.1522C27.5771 10.4471 29.5452 12.4235 29.5452 14.8484C29.5452 17.2734 27.5771 19.2498 25.1522 19.2498Z" fill="url(#paint0_linear_291_199)"/>
<path fill-rule="evenodd" clip-rule="evenodd" d="M9.70575 24.1414H4.46561C4.12512 24.1414 3.85107 23.8674 3.85107 23.5269C3.85107 23.1947 4.12512 22.9206 4.46561 22.9206H9.09121V18.6355C9.09121 18.3033 9.36526 18.0293 9.70575 18.0293C10.0462 18.0293 10.3203 18.3033 10.3203 18.6355V23.5269C10.3203 23.8674 10.0462 24.1414 9.70575 24.1414Z" fill="url(#paint1_linear_291_199)"/>
<path fill-rule="evenodd" clip-rule="evenodd" d="M2.82962 25.7769C1.59225 25.7769 0.579102 24.7721 0.579102 23.5264C0.579102 22.289 1.59225 21.2842 2.82962 21.2842C4.06699 21.2842 5.08014 22.289 5.08014 23.5264C5.08014 24.7721 4.06699 25.7769 2.82962 25.7769Z" fill="url(#paint2_linear_291_199)"/>
<path fill-rule="evenodd" clip-rule="evenodd" d="M25.5344 24.1414H20.2942C19.9537 24.1414 19.6797 23.8674 19.6797 23.5269V18.6355C19.6797 18.3033 19.9537 18.0293 20.2942 18.0293C20.6347 18.0293 20.9088 18.3033 20.9088 18.6355V22.9206H25.5344C25.8665 22.9206 26.1406 23.1947 26.1406 23.5269C26.1406 23.8674 25.8665 24.1414 25.5344 24.1414Z" fill="url(#paint3_linear_291_199)"/>
<path fill-rule="evenodd" clip-rule="evenodd" d="M27.1704 25.7769C25.9331 25.7769 24.9199 24.7721 24.9199 23.5264C24.9199 22.289 25.9331 21.2842 27.1704 21.2842C28.4078 21.2842 29.4127 22.289 29.4127 23.5264C29.4127 24.7721 28.4078 25.7769 27.1704 25.7769Z" fill="url(#paint4_linear_291_199)"/>
<path fill-rule="evenodd" clip-rule="evenodd" d="M12.3552 30.021H7.11502C6.77454 30.021 6.50049 29.7469 6.50049 29.4148C6.50049 29.0743 6.77454 28.8002 7.11502 28.8002H11.7406V18.6355C11.7406 18.3033 12.0147 18.0293 12.3552 18.0293C12.6873 18.0293 12.9614 18.3033 12.9614 18.6355V29.4148C12.9614 29.7469 12.6873 30.021 12.3552 30.021Z" fill="url(#paint5_linear_291_199)"/>
<path fill-rule="evenodd" clip-rule="evenodd" d="M5.47903 31.6568C4.24166 31.6568 3.22852 30.652 3.22852 29.4146C3.22852 28.1772 4.24166 27.1641 5.47903 27.1641C6.7164 27.1641 7.72125 28.1772 7.72125 29.4146C7.72125 30.652 6.7164 31.6568 5.47903 31.6568Z" fill="url(#paint6_linear_291_199)"/>
<path fill-rule="evenodd" clip-rule="evenodd" d="M22.8849 30.021H17.6448C17.3126 30.021 17.0386 29.7469 17.0386 29.4148V18.6355C17.0386 18.3033 17.3126 18.0293 17.6448 18.0293C17.9853 18.0293 18.2593 18.3033 18.2593 18.6355V28.8002H22.8849C23.2254 28.8002 23.4995 29.0743 23.4995 29.4148C23.4995 29.7469 23.2254 30.021 22.8849 30.021Z" fill="url(#paint7_linear_291_199)"/>
<path fill-rule="evenodd" clip-rule="evenodd" d="M24.521 31.6568C23.2837 31.6568 22.2705 30.652 22.2705 29.4146C22.2705 28.1772 23.2837 27.1641 24.521 27.1641C25.7584 27.1641 26.7715 28.1772 26.7715 29.4146C26.7715 30.652 25.7584 31.6568 24.521 31.6568Z" fill="url(#paint8_linear_291_199)"/>
<path fill-rule="evenodd" clip-rule="evenodd" d="M14.9959 32.7283C14.6637 32.7283 14.3896 32.4542 14.3896 32.1137V18.6355C14.3896 18.3033 14.6637 18.0293 14.9959 18.0293C15.3364 18.0293 15.6104 18.3033 15.6104 18.6355V32.1137C15.6104 32.4542 15.3364 32.7283 14.9959 32.7283Z" fill="url(#paint9_linear_291_199)"/>
<path fill-rule="evenodd" clip-rule="evenodd" d="M14.9956 36.0001C13.7583 36.0001 12.7534 34.9869 12.7534 33.7495C12.7534 32.5122 13.7583 31.499 14.9956 31.499C16.2413 31.499 17.2462 32.5122 17.2462 33.7495C17.2462 34.9869 16.2413 36.0001 14.9956 36.0001Z" fill="url(#paint10_linear_291_199)"/>
<defs>
<linearGradient id="paint0_linear_291_199" x1="14.9999" y1="0" x2="14.9999" y2="19.2498" gradientUnits="userSpaceOnUse">
<stop stop-color="#E31937"/>
<stop offset="1" stop-color="#9B1B08"/>
</linearGradient>
<linearGradient id="paint1_linear_291_199" x1="7.08568" y1="18.0293" x2="7.08568" y2="24.1414" gradientUnits="userSpaceOnUse">
<stop stop-color="#E31937"/>
<stop offset="1" stop-color="#9B1B08"/>
</linearGradient>
<linearGradient id="paint2_linear_291_199" x1="2.82962" y1="21.2842" x2="2.82962" y2="25.7769" gradientUnits="userSpaceOnUse">
<stop stop-color="#E31937"/>
<stop offset="1" stop-color="#9B1B08"/>
</linearGradient>
<linearGradient id="paint3_linear_291_199" x1="22.9101" y1="18.0293" x2="22.9101" y2="24.1414" gradientUnits="userSpaceOnUse">
<stop stop-color="#E31937"/>
<stop offset="1" stop-color="#9B1B08"/>
</linearGradient>
<linearGradient id="paint4_linear_291_199" x1="27.1663" y1="21.2842" x2="27.1663" y2="25.7769" gradientUnits="userSpaceOnUse">
<stop stop-color="#E31937"/>
<stop offset="1" stop-color="#9B1B08"/>
</linearGradient>
<linearGradient id="paint5_linear_291_199" x1="9.73094" y1="18.0293" x2="9.73094" y2="30.021" gradientUnits="userSpaceOnUse">
<stop stop-color="#E31937"/>
<stop offset="1" stop-color="#9B1B08"/>
</linearGradient>
<linearGradient id="paint6_linear_291_199" x1="5.47488" y1="27.1641" x2="5.47488" y2="31.6568" gradientUnits="userSpaceOnUse">
<stop stop-color="#E31937"/>
<stop offset="1" stop-color="#9B1B08"/>
</linearGradient>
<linearGradient id="paint7_linear_291_199" x1="20.269" y1="18.0293" x2="20.269" y2="30.021" gradientUnits="userSpaceOnUse">
<stop stop-color="#E31937"/>
<stop offset="1" stop-color="#9B1B08"/>
</linearGradient>
<linearGradient id="paint8_linear_291_199" x1="24.521" y1="27.1641" x2="24.521" y2="31.6568" gradientUnits="userSpaceOnUse">
<stop stop-color="#E31937"/>
<stop offset="1" stop-color="#9B1B08"/>
</linearGradient>
<linearGradient id="paint9_linear_291_199" x1="15" y1="18.0293" x2="15" y2="32.7283" gradientUnits="userSpaceOnUse">
<stop stop-color="#E31937"/>
<stop offset="1" stop-color="#9B1B08"/>
</linearGradient>
<linearGradient id="paint10_linear_291_199" x1="14.9998" y1="31.499" x2="14.9998" y2="36.0001" gradientUnits="userSpaceOnUse">
<stop stop-color="#E31937"/>
<stop offset="1" stop-color="#9B1B08"/>
</linearGradient>
</defs>
</svg>
