<svg width="64" height="45" viewBox="0 0 64 45" fill="none" xmlns="http://www.w3.org/2000/svg">
<path d="M49 44.5679C57.2727 44.5679 64 37.8388 64 29.5679C64 22.0166 58.3932 15.7508 51.1204 14.718C51.7026 10.4883 53.3176 6.46365 55.8409 2.97365C56.3316 2.29252 56.3132 1.36964 55.7896 0.710522C55.2759 0.0618942 54.3831 -0.183978 53.5996 0.146523C41.6941 5.1159 34 16.6663 34 29.5679C34 37.8388 40.7272 44.5679 49 44.5679ZM15 44.5679C23.2727 44.5679 30 37.8388 30 29.5679C30 22.0167 24.3932 15.7508 17.1204 14.718C17.7026 10.4883 19.3176 6.46365 21.8409 2.97365C22.3316 2.29253 22.3132 1.36965 21.7896 0.710525C21.2759 0.0618972 20.3831 -0.183975 19.5996 0.146526C7.69412 5.1159 -1.00686e-05 16.6663 -8.94074e-06 29.5679C-8.21767e-06 37.8388 6.72724 44.5679 15 44.5679Z" fill="url(#paint0_linear_458_299)" fill-opacity="0.05"/>
<defs>
<linearGradient id="paint0_linear_458_299" x1="32" y1="44.5679" x2="32" y2="2.79753e-06" gradientUnits="userSpaceOnUse">
<stop stop-color="#E31937"/>
<stop offset="1" stop-color="#9B1B08"/>
</linearGradient>
</defs>
</svg>
