<svg width="45" height="45" viewBox="0 0 45 45" fill="none" xmlns="http://www.w3.org/2000/svg">
<path d="M42.8534 24.2954L34.8564 19.5469V5.73047C34.8564 5.64966 34.8405 5.56964 34.8096 5.49497C34.7787 5.42031 34.7334 5.35247 34.6763 5.29533C34.6191 5.23819 34.5513 5.19287 34.4766 5.16197C34.402 5.13107 34.3219 5.11519 34.2411 5.11523H32.3427V2.46094C32.3427 2.38013 32.3269 2.30011 32.296 2.22544C32.2651 2.15078 32.2197 2.08294 32.1626 2.0258C32.1055 1.96866 32.0376 1.92334 31.963 1.89244C31.8883 1.86154 31.8083 1.84566 31.7275 1.8457H13.2736C13.1928 1.84566 13.1128 1.86154 13.0381 1.89244C12.9634 1.92334 12.8956 1.96866 12.8385 2.0258C12.7813 2.08294 12.736 2.15078 12.7051 2.22544C12.6742 2.30011 12.6583 2.38013 12.6584 2.46094V5.11629H10.7578C10.5946 5.11629 10.4382 5.18111 10.3228 5.29649C10.2074 5.41187 10.1426 5.56835 10.1426 5.73152V19.5469L2.14664 24.2954C2.0552 24.3498 1.97942 24.427 1.92668 24.5194C1.87394 24.6119 1.84604 24.7164 1.8457 24.8228V42.5391C1.84566 42.6199 1.86154 42.6999 1.89244 42.7746C1.92334 42.8492 1.96866 42.9171 2.0258 42.9742C2.08294 43.0313 2.15078 43.0767 2.22544 43.1076C2.30011 43.1385 2.38013 43.1543 2.46094 43.1543H42.5391C42.6199 43.1543 42.6999 43.1385 42.7746 43.1076C42.8492 43.0767 42.9171 43.0313 42.9742 42.9742C43.0313 42.9171 43.0767 42.8492 43.1076 42.7746C43.1385 42.6999 43.1543 42.6199 43.1543 42.5391V24.8245C43.1543 24.7178 43.1265 24.613 43.0738 24.5202C43.021 24.4275 42.9451 24.35 42.8534 24.2954ZM13.8888 3.07617H31.1112V5.11523H13.8888V3.07617ZM3.07617 25.1747L10.1426 20.9767V41.9238H3.07617V25.1747ZM11.373 6.34676H33.627V41.9249H28.1704V29.8445C28.1704 29.7637 28.1545 29.6837 28.1236 29.609C28.0927 29.5343 28.0474 29.4665 27.9903 29.4094C27.9331 29.3522 27.8653 29.3069 27.7906 29.276C27.7159 29.2451 27.6359 29.2292 27.5551 29.2293H17.4449C17.3641 29.2292 17.2841 29.2451 17.2094 29.276C17.1347 29.3069 17.0669 29.3522 17.0097 29.4094C16.9526 29.4665 16.9073 29.5343 16.8764 29.609C16.8455 29.6837 16.8296 29.7637 16.8296 29.8445V41.9238H11.3738L11.373 6.34676ZM26.9392 41.9249H18.0601V30.4597H26.9399L26.9392 41.9249ZM41.9231 41.9249H34.8567V20.9767L41.9231 25.1747V41.9249Z" fill="#C62D17"/>
<path d="M20.8687 23.773H24.1312C24.2943 23.773 24.4508 23.7082 24.5662 23.5928C24.6816 23.4774 24.7464 23.3209 24.7464 23.1578V19.8956C24.7464 19.7325 24.6816 19.576 24.5662 19.4606C24.4508 19.3452 24.2943 19.2804 24.1312 19.2804H20.8687C20.7055 19.2804 20.549 19.3452 20.4336 19.4606C20.3182 19.576 20.2534 19.7325 20.2534 19.8956V23.1578C20.2534 23.3209 20.3182 23.4774 20.4336 23.5928C20.549 23.7082 20.7055 23.773 20.8687 23.773ZM21.4839 20.5109H23.5159V22.5425H21.4839V20.5109Z" fill="#C62D17"/>
<path d="M27.5552 23.773H30.8173C30.8981 23.7731 30.9782 23.7572 31.0528 23.7263C31.1275 23.6954 31.1953 23.6501 31.2525 23.5929C31.3096 23.5358 31.3549 23.4679 31.3858 23.3933C31.4167 23.3186 31.4326 23.2386 31.4326 23.1578V19.8956C31.4326 19.8148 31.4167 19.7348 31.3858 19.6601C31.3549 19.5855 31.3096 19.5176 31.2525 19.4605C31.1953 19.4034 31.1275 19.358 31.0528 19.3271C30.9782 19.2962 30.8981 19.2803 30.8173 19.2804H27.5552C27.4744 19.2803 27.3943 19.2962 27.3197 19.3271C27.245 19.358 27.1772 19.4034 27.12 19.4605C27.0629 19.5176 27.0176 19.5855 26.9867 19.6601C26.9558 19.7348 26.9399 19.8148 26.9399 19.8956V23.1578C26.9399 23.2386 26.9558 23.3186 26.9867 23.3933C27.0176 23.4679 27.0629 23.5358 27.12 23.5929C27.1772 23.6501 27.245 23.6954 27.3197 23.7263C27.3943 23.7572 27.4744 23.7731 27.5552 23.773ZM28.1704 20.5109H30.2021V22.5425H28.1704V20.5109Z" fill="#C62D17"/>
<path d="M17.4448 23.773C17.5256 23.7731 17.6056 23.7572 17.6803 23.7263C17.7549 23.6954 17.8228 23.6501 17.8799 23.5929C17.937 23.5358 17.9824 23.4679 18.0133 23.3933C18.0442 23.3186 18.06 23.2386 18.06 23.1578V19.8956C18.06 19.8148 18.0442 19.7348 18.0133 19.6601C17.9824 19.5855 17.937 19.5176 17.8799 19.4605C17.8228 19.4034 17.7549 19.358 17.6803 19.3271C17.6056 19.2962 17.5256 19.2803 17.4448 19.2804H14.1826C14.1018 19.2803 14.0218 19.2962 13.9471 19.3271C13.8725 19.358 13.8046 19.4034 13.7475 19.4605C13.6903 19.5176 13.645 19.5855 13.6141 19.6601C13.5832 19.7348 13.5673 19.8148 13.5674 19.8956V23.1578C13.5673 23.2386 13.5832 23.3186 13.6141 23.3933C13.645 23.4679 13.6903 23.5358 13.7475 23.5929C13.8046 23.6501 13.8725 23.6954 13.9471 23.7263C14.0218 23.7572 14.1018 23.7731 14.1826 23.773H17.4448ZM14.7979 20.5109H16.8295V22.5425H14.7979V20.5109Z" fill="#C62D17"/>
<path d="M20.8687 16.2953H24.1312C24.2943 16.2952 24.4507 16.2303 24.5661 16.115C24.6814 15.9996 24.7463 15.8432 24.7464 15.68V12.4175C24.7464 12.2544 24.6816 12.0979 24.5662 11.9825C24.4508 11.8671 24.2943 11.8023 24.1312 11.8023H20.8687C20.7055 11.8023 20.549 11.8671 20.4336 11.9825C20.3182 12.0979 20.2534 12.2544 20.2534 12.4175V15.6797C20.2534 15.8429 20.3182 15.9994 20.4336 16.1149C20.549 16.2303 20.7054 16.2952 20.8687 16.2953ZM21.4839 13.0328H23.5159V15.0648H21.4839V13.0328Z" fill="#C62D17"/>
<path d="M27.5552 16.2953H30.8173C30.9805 16.2953 31.137 16.2305 31.2524 16.1151C31.3677 15.9997 31.4326 15.8432 31.4326 15.68V12.4175C31.4326 12.3367 31.4167 12.2567 31.3858 12.182C31.3549 12.1074 31.3096 12.0395 31.2525 11.9824C31.1953 11.9253 31.1275 11.8799 31.0528 11.849C30.9782 11.8181 30.8981 11.8023 30.8173 11.8023H27.5552C27.4744 11.8023 27.3943 11.8181 27.3197 11.849C27.245 11.8799 27.1772 11.9253 27.12 11.9824C27.0629 12.0395 27.0176 12.1074 26.9867 12.182C26.9558 12.2567 26.9399 12.3367 26.9399 12.4175V15.6797C26.9399 15.7605 26.9558 15.8406 26.9867 15.9152C27.0176 15.9899 27.0629 16.0578 27.12 16.115C27.1772 16.1721 27.245 16.2175 27.3197 16.2484C27.3943 16.2794 27.4744 16.2953 27.5552 16.2953ZM28.1704 13.0328H30.2021V15.0648H28.1704V13.0328Z" fill="#C62D17"/>
<path d="M14.1826 16.2953H17.4448C17.6079 16.2953 17.7644 16.2305 17.8798 16.1151C17.9952 15.9997 18.06 15.8432 18.06 15.68V12.4175C18.06 12.3367 18.0442 12.2567 18.0133 12.182C17.9824 12.1074 17.937 12.0395 17.8799 11.9824C17.8228 11.9253 17.7549 11.8799 17.6803 11.849C17.6056 11.8181 17.5256 11.8023 17.4448 11.8023H14.1826C14.1018 11.8023 14.0218 11.8181 13.9471 11.849C13.8725 11.8799 13.8046 11.9253 13.7475 11.9824C13.6903 12.0395 13.645 12.1074 13.6141 12.182C13.5832 12.2567 13.5673 12.3367 13.5674 12.4175V15.6797C13.5673 15.7605 13.5832 15.8406 13.6141 15.9152C13.645 15.9899 13.6903 16.0578 13.7475 16.115C13.8046 16.1721 13.8724 16.2175 13.9471 16.2484C14.0218 16.2794 14.1018 16.2953 14.1826 16.2953ZM14.7979 13.0328H16.8295V15.0648H14.7979V13.0328Z" fill="#C62D17"/>
</svg>
