<svg width="45" height="45" viewBox="0 0 45 45" fill="none" xmlns="http://www.w3.org/2000/svg">
<path d="M22.5 1.6875C18.3281 1.6875 14.2498 2.92463 10.7809 5.24244C7.3121 7.56025 4.60846 10.8546 3.01193 14.709C1.41539 18.5634 0.997663 22.8046 1.81157 26.8964C2.62548 30.9882 4.63446 34.7468 7.58448 37.6968C10.5345 40.6468 14.293 42.6558 18.3848 43.4697C22.4766 44.2836 26.7179 43.8659 30.5722 42.2693C34.4266 40.6728 37.721 37.9692 40.0388 34.5003C42.3566 31.0315 43.5938 26.9532 43.5938 22.7813C43.5938 17.1868 41.3714 11.8216 37.4155 7.86572C33.4597 3.90987 28.0944 1.6875 22.5 1.6875ZM22.5 41.0625C18.8843 41.0625 15.3498 39.9903 12.3435 37.9816C9.33715 35.9728 6.994 33.1176 5.61034 29.7772C4.22667 26.4367 3.86464 22.761 4.57003 19.2148C5.27541 15.6685 7.01653 12.4111 9.57321 9.85445C12.1299 7.29777 15.3873 5.55666 18.9335 4.85127C22.4797 4.14588 26.1555 4.50791 29.4959 5.89158C32.8364 7.27524 35.6915 9.6184 37.7003 12.6247C39.7091 15.6311 40.7813 19.1656 40.7813 22.7813C40.7813 27.6297 38.8552 32.2796 35.4268 35.708C31.9984 39.1364 27.3485 41.0625 22.5 41.0625Z" fill="#C62D17"/>
<path d="M34.1297 14.85C33.8663 14.5881 33.5098 14.4411 33.1383 14.4411C32.7668 14.4411 32.4104 14.5881 32.1469 14.85L19.0829 27.9141C19.0124 27.9803 18.9194 28.0172 18.8227 28.0172C18.726 28.0172 18.633 27.9803 18.5625 27.9141L12.8532 22.2047C12.5897 21.9428 12.2333 21.7958 11.8618 21.7958C11.4902 21.7958 11.1338 21.9428 10.8704 22.2047C10.6084 22.4682 10.4614 22.8246 10.4614 23.1961C10.4614 23.5676 10.6084 23.924 10.8704 24.1875L18.5625 31.8797C18.633 31.9459 18.726 31.9828 18.8227 31.9828C18.9194 31.9828 19.0124 31.9459 19.0829 31.8797L34.1297 16.875C34.3916 16.6115 34.5387 16.2551 34.5387 15.8836C34.5387 15.5121 34.3916 15.1557 34.1297 14.8922V14.85Z" fill="#C62D17"/>
</svg>
