<svg width="40" height="40" viewBox="0 0 40 40" fill="none" xmlns="http://www.w3.org/2000/svg">
<g clip-path="url(#clip0_635_310)">
<path d="M1.11125 25.5903H5.55542C6.16903 25.5903 6.66667 26.0876 6.66667 26.7012V37.8124C6.66667 38.426 6.16903 38.9237 5.55542 38.9237H1.11125C0.49764 38.9237 0 38.426 0 37.8124V26.7012C0 26.0876 0.49764 25.5903 1.11125 25.5903Z" fill="white"/>
<path d="M12.2222 16.7012H16.6667C17.2804 16.7012 17.778 17.1988 17.778 17.8124V37.8124C17.778 38.426 17.2804 38.9237 16.6667 38.9237H12.2222C11.6086 38.9237 11.1113 38.426 11.1113 37.8124V17.8124C11.1113 17.1988 11.6086 16.7012 12.2222 16.7012Z" fill="white"/>
<path d="M23.3339 21.1458H27.7785C28.3921 21.1458 28.8893 21.6434 28.8893 22.257V37.8124C28.8893 38.426 28.3921 38.9237 27.7785 38.9237H23.3339C22.7203 38.9237 22.2227 38.426 22.2227 37.8124V22.257C22.2227 21.6434 22.7203 21.1458 23.3339 21.1458Z" fill="white"/>
<path d="M34.4452 14.4792H38.8894C39.503 14.4792 40.0007 14.9769 40.0007 15.5905V37.8126C40.0007 38.4262 39.503 38.9238 38.8894 38.9238H34.4452C33.8316 38.9238 33.334 38.4262 33.334 37.8126V15.5905C33.334 14.9769 33.8316 14.4792 34.4452 14.4792Z" fill="white"/>
<path d="M36.6667 1.14575C34.8267 1.14779 33.3354 2.63908 33.3333 4.47909C33.3378 4.84204 33.4021 5.20174 33.5238 5.54354L27.9614 8.85002C27.2314 8.07568 26.1731 7.70052 25.1184 7.84172C24.0633 7.98291 23.1413 8.62337 22.6404 9.5625L17.7344 7.13249C17.7584 6.98967 17.7726 6.84562 17.7779 6.70117C17.7804 5.35189 16.9694 4.13444 15.7235 3.61646C14.4775 3.09888 13.0424 3.3833 12.0882 4.33708C11.1336 5.29085 10.8484 6.72559 11.3656 7.97192L5.00163 12.7213C4.49707 12.4206 3.9209 12.2603 3.33333 12.257C1.49251 12.257 0 13.7491 0 15.5903C0 17.4312 1.49251 18.9237 3.33333 18.9237C5.17415 18.9237 6.66667 17.4312 6.66667 15.5903C6.66382 15.1891 6.58813 14.7924 6.44328 14.4185L12.8707 9.6215C14.128 10.3226 15.6962 10.1171 16.7301 9.11532L22.3092 11.8786C22.6811 13.5351 24.2399 14.6467 25.9273 14.4587C27.6147 14.2708 28.8908 12.8438 28.8888 11.1458C28.8888 11.0611 28.87 10.9814 28.8639 10.8984L34.9137 7.30176C35.4382 7.63338 36.0457 7.81038 36.6667 7.81242C38.5075 7.81242 40 6.31991 40 4.47909C40 2.63827 38.5075 1.14575 36.6667 1.14575Z" fill="white"/>
</g>
<defs>
<clipPath id="clip0_635_310">
<rect width="40" height="40" fill="white"/>
</clipPath>
</defs>
</svg>
