<svg width="34" height="34" viewBox="0 0 34 34" fill="none" xmlns="http://www.w3.org/2000/svg">
<path d="M30.5 6.3125C32.0533 6.3125 33.3125 5.0533 33.3125 3.5C33.3125 1.9467 32.0533 0.6875 30.5 0.6875C28.9467 0.6875 27.6875 1.9467 27.6875 3.5C27.6875 5.0533 28.9467 6.3125 30.5 6.3125Z" fill="url(#paint0_linear_291_267)"/>
<path d="M11.9375 15.875H13.0625V22.625H11.9375V15.875Z" fill="url(#paint1_linear_291_267)"/>
<path d="M15.3125 17H18.6875V19.5048C20.3379 17.6289 22.7487 16.4375 25.4375 16.4375C27.0777 16.4375 28.6117 16.8858 29.9375 17.6553V7.3925C29.2721 7.29688 28.6612 7.03475 28.1465 6.64887L24.7057 10.0891C24.8114 10.3096 24.875 10.5526 24.875 10.8125C24.875 11.7429 24.1179 12.5 23.1875 12.5C22.2571 12.5 21.5 11.7429 21.5 10.8125C21.5 10.5526 21.5636 10.3096 21.6693 10.0897L20.5359 8.95625C20.3154 9.06144 20.0724 9.125 19.8125 9.125C19.5526 9.125 19.3096 9.06144 19.0897 8.95569L16.2688 11.7766C16.3739 11.9971 16.4375 12.2401 16.4375 12.5C16.4375 13.4304 15.6804 14.1875 14.75 14.1875C13.8196 14.1875 13.0625 13.4304 13.0625 12.5C13.0625 11.5696 13.8196 10.8125 14.75 10.8125C15.0099 10.8125 15.2529 10.8761 15.4728 10.9818L18.2937 8.16087C18.1886 7.94037 18.125 7.69738 18.125 7.4375C18.125 6.50712 18.8821 5.75 19.8125 5.75C20.7429 5.75 21.5 6.50712 21.5 7.4375C21.5 7.69738 21.4364 7.94037 21.3307 8.16031L22.4641 9.29375C22.6846 9.18856 22.9276 9.125 23.1875 9.125C23.4474 9.125 23.6904 9.18856 23.9103 9.29431L27.3506 5.85406C27.0761 5.48788 26.8623 5.07444 26.7279 4.625H0.6875V24.875H16.4662C16.4898 24.4936 16.532 24.1173 16.6017 23.75H15.3125V17ZM4.0625 5.75H11.9375V6.875H4.0625V5.75ZM4.0625 8H11.9375V9.125H4.0625V8ZM4.0625 10.25H11.9375V11.375H4.0625V10.25ZM4.0625 12.5H11.9375V13.625H4.0625V12.5ZM1.8125 5.75H2.9375V6.875H1.8125V5.75ZM1.8125 8H2.9375V9.125H1.8125V8ZM1.8125 10.25H2.9375V11.375H1.8125V10.25ZM1.8125 12.5H2.9375V13.625H1.8125V12.5ZM5.1875 23.75H1.8125V18.125H5.1875V23.75ZM9.6875 23.75H6.3125V19.25H9.6875V23.75ZM14.1875 23.75H10.8125V14.75H14.1875V23.75Z" fill="url(#paint2_linear_291_267)"/>
<path d="M26 17.5913V19.8413C28.8384 20.1248 31.0625 22.5261 31.0625 25.4376C31.0625 26.2606 30.8803 27.0407 30.5613 27.7461L32.5126 28.8728C33.02 27.8333 33.3125 26.6701 33.3125 25.4376C33.3125 21.2852 30.0798 17.8816 26 17.5913Z" fill="url(#paint3_linear_291_267)"/>
<path d="M2.9375 19.25H4.0625V22.625H2.9375V19.25Z" fill="url(#paint4_linear_291_267)"/>
<path d="M23.1875 11.375C23.4982 11.375 23.75 11.1232 23.75 10.8125C23.75 10.5018 23.4982 10.25 23.1875 10.25C22.8768 10.25 22.625 10.5018 22.625 10.8125C22.625 11.1232 22.8768 11.375 23.1875 11.375Z" fill="url(#paint5_linear_291_267)"/>
<path d="M7.4375 20.375H8.5625V22.625H7.4375V20.375Z" fill="url(#paint6_linear_291_267)"/>
<path d="M19.8125 8C20.1232 8 20.375 7.74816 20.375 7.4375C20.375 7.12684 20.1232 6.875 19.8125 6.875C19.5018 6.875 19.25 7.12684 19.25 7.4375C19.25 7.74816 19.5018 8 19.8125 8Z" fill="url(#paint7_linear_291_267)"/>
<path d="M17.5625 18.125H16.4375V22.625H16.8937C17.0703 22.0901 17.2931 21.5759 17.5625 21.0899V18.125Z" fill="url(#paint8_linear_291_267)"/>
<path d="M19.8125 25.4376C19.8125 22.5261 22.0366 20.1242 24.875 19.8413V17.5913C20.7952 17.8816 17.5625 21.2852 17.5625 25.4376C17.5625 26.6701 17.855 27.8333 18.3624 28.8728L20.3137 27.7461C19.9947 27.0407 19.8125 26.2606 19.8125 25.4376Z" fill="url(#paint9_linear_291_267)"/>
<path d="M20.9375 25.4375C20.9375 27.9187 22.9563 29.9375 25.4375 29.9375C27.9187 29.9375 29.9375 27.9187 29.9375 25.4375C29.9375 22.9563 27.9187 20.9375 25.4375 20.9375C22.9563 20.9375 20.9375 22.9563 20.9375 25.4375ZM25.4375 22.0625C27.2988 22.0625 28.8125 23.5762 28.8125 25.4375C28.8125 27.2988 27.2988 28.8125 25.4375 28.8125C23.5762 28.8125 22.0625 27.2988 22.0625 25.4375C22.0625 23.5762 23.5762 22.0625 25.4375 22.0625Z" fill="url(#paint10_linear_291_267)"/>
<path d="M25.4372 31.0626C23.5607 31.0626 21.9008 30.1356 20.8781 28.7192L18.9189 29.8504C20.3364 31.9384 22.7293 33.3126 25.4372 33.3126C28.1451 33.3126 30.5379 31.9384 31.9554 29.8504L29.9963 28.7192C28.9736 30.1356 27.3137 31.0626 25.4372 31.0626Z" fill="url(#paint11_linear_291_267)"/>
<path d="M14.75 13.0625C15.0607 13.0625 15.3125 12.8107 15.3125 12.5C15.3125 12.1893 15.0607 11.9375 14.75 11.9375C14.4393 11.9375 14.1875 12.1893 14.1875 12.5C14.1875 12.8107 14.4393 13.0625 14.75 13.0625Z" fill="url(#paint12_linear_291_267)"/>
<path d="M25.4375 27.6875C26.6801 27.6875 27.6875 26.6801 27.6875 25.4375C27.6875 24.1949 26.6801 23.1875 25.4375 23.1875C24.1949 23.1875 23.1875 24.1949 23.1875 25.4375C23.1875 26.6801 24.1949 27.6875 25.4375 27.6875Z" fill="url(#paint13_linear_291_267)"/>
<defs>
<linearGradient id="paint0_linear_291_267" x1="30.5" y1="0.6875" x2="30.5" y2="6.3125" gradientUnits="userSpaceOnUse">
<stop stop-color="#E31937"/>
<stop offset="1" stop-color="#9B1B08"/>
</linearGradient>
<linearGradient id="paint1_linear_291_267" x1="12.5" y1="15.875" x2="12.5" y2="22.625" gradientUnits="userSpaceOnUse">
<stop stop-color="#E31937"/>
<stop offset="1" stop-color="#9B1B08"/>
</linearGradient>
<linearGradient id="paint2_linear_291_267" x1="15.3125" y1="4.625" x2="15.3125" y2="24.875" gradientUnits="userSpaceOnUse">
<stop stop-color="#E31937"/>
<stop offset="1" stop-color="#9B1B08"/>
</linearGradient>
<linearGradient id="paint3_linear_291_267" x1="29.6562" y1="17.5913" x2="29.6562" y2="28.8728" gradientUnits="userSpaceOnUse">
<stop stop-color="#E31937"/>
<stop offset="1" stop-color="#9B1B08"/>
</linearGradient>
<linearGradient id="paint4_linear_291_267" x1="3.5" y1="19.25" x2="3.5" y2="22.625" gradientUnits="userSpaceOnUse">
<stop stop-color="#E31937"/>
<stop offset="1" stop-color="#9B1B08"/>
</linearGradient>
<linearGradient id="paint5_linear_291_267" x1="23.1875" y1="10.25" x2="23.1875" y2="11.375" gradientUnits="userSpaceOnUse">
<stop stop-color="#E31937"/>
<stop offset="1" stop-color="#9B1B08"/>
</linearGradient>
<linearGradient id="paint6_linear_291_267" x1="8" y1="20.375" x2="8" y2="22.625" gradientUnits="userSpaceOnUse">
<stop stop-color="#E31937"/>
<stop offset="1" stop-color="#9B1B08"/>
</linearGradient>
<linearGradient id="paint7_linear_291_267" x1="19.8125" y1="6.875" x2="19.8125" y2="8" gradientUnits="userSpaceOnUse">
<stop stop-color="#E31937"/>
<stop offset="1" stop-color="#9B1B08"/>
</linearGradient>
<linearGradient id="paint8_linear_291_267" x1="17" y1="18.125" x2="17" y2="22.625" gradientUnits="userSpaceOnUse">
<stop stop-color="#E31937"/>
<stop offset="1" stop-color="#9B1B08"/>
</linearGradient>
<linearGradient id="paint9_linear_291_267" x1="21.2188" y1="17.5913" x2="21.2188" y2="28.8728" gradientUnits="userSpaceOnUse">
<stop stop-color="#E31937"/>
<stop offset="1" stop-color="#9B1B08"/>
</linearGradient>
<linearGradient id="paint10_linear_291_267" x1="25.4375" y1="20.9375" x2="25.4375" y2="29.9375" gradientUnits="userSpaceOnUse">
<stop stop-color="#E31937"/>
<stop offset="1" stop-color="#9B1B08"/>
</linearGradient>
<linearGradient id="paint11_linear_291_267" x1="25.4372" y1="28.7192" x2="25.4372" y2="33.3126" gradientUnits="userSpaceOnUse">
<stop stop-color="#E31937"/>
<stop offset="1" stop-color="#9B1B08"/>
</linearGradient>
<linearGradient id="paint12_linear_291_267" x1="14.75" y1="11.9375" x2="14.75" y2="13.0625" gradientUnits="userSpaceOnUse">
<stop stop-color="#E31937"/>
<stop offset="1" stop-color="#9B1B08"/>
</linearGradient>
<linearGradient id="paint13_linear_291_267" x1="25.4375" y1="23.1875" x2="25.4375" y2="27.6875" gradientUnits="userSpaceOnUse">
<stop stop-color="#E31937"/>
<stop offset="1" stop-color="#9B1B08"/>
</linearGradient>
</defs>
</svg>
