<svg width="18" height="18" viewBox="0 0 18 18" fill="none" xmlns="http://www.w3.org/2000/svg">
<path d="M8.15625 3.09375V7.03125C8.15625 7.32962 8.03772 7.61577 7.82675 7.82675C7.61577 8.03772 7.32962 8.15625 7.03125 8.15625H3.09375C2.79538 8.15625 2.50923 8.03772 2.29825 7.82675C2.08728 7.61577 1.96875 7.32962 1.96875 7.03125V3.09375C1.96875 2.79538 2.08728 2.50923 2.29825 2.29825C2.50923 2.08728 2.79538 1.96875 3.09375 1.96875H7.03125C7.32962 1.96875 7.61577 2.08728 7.82675 2.29825C8.03772 2.50923 8.15625 2.79538 8.15625 3.09375ZM14.9062 1.96875H10.9688C10.6704 1.96875 10.3842 2.08728 10.1733 2.29825C9.96228 2.50923 9.84375 2.79538 9.84375 3.09375V7.03125C9.84375 7.32962 9.96228 7.61577 10.1733 7.82675C10.3842 8.03772 10.6704 8.15625 10.9688 8.15625H14.9062C15.2046 8.15625 15.4908 8.03772 15.7017 7.82675C15.9127 7.61577 16.0312 7.32962 16.0312 7.03125V3.09375C16.0312 2.79538 15.9127 2.50923 15.7017 2.29825C15.4908 2.08728 15.2046 1.96875 14.9062 1.96875ZM7.03125 9.84375H3.09375C2.79538 9.84375 2.50923 9.96228 2.29825 10.1733C2.08728 10.3842 1.96875 10.6704 1.96875 10.9688V14.9062C1.96875 15.2046 2.08728 15.4908 2.29825 15.7017C2.50923 15.9127 2.79538 16.0312 3.09375 16.0312H7.03125C7.32962 16.0312 7.61577 15.9127 7.82675 15.7017C8.03772 15.4908 8.15625 15.2046 8.15625 14.9062V10.9688C8.15625 10.6704 8.03772 10.3842 7.82675 10.1733C7.61577 9.96228 7.32962 9.84375 7.03125 9.84375ZM12.9375 9.84375C12.3256 9.84375 11.7275 10.0252 11.2187 10.3651C10.7099 10.7051 10.3134 11.1883 10.0792 11.7536C9.84509 12.3189 9.78382 12.9409 9.9032 13.5411C10.0226 14.1412 10.3172 14.6924 10.7499 15.1251C11.1826 15.5578 11.7338 15.8524 12.3339 15.9718C12.9341 16.0912 13.5561 16.0299 14.1214 15.7958C14.6867 15.5616 15.1699 15.1651 15.5099 14.6563C15.8498 14.1475 16.0312 13.5494 16.0312 12.9375C16.0312 12.117 15.7053 11.3301 15.1251 10.7499C14.5449 10.1697 13.758 9.84375 12.9375 9.84375Z" fill="white"/>
</svg>
