<svg width="18" height="18" viewBox="0 0 18 18" fill="none" xmlns="http://www.w3.org/2000/svg">
<g clip-path="url(#clip0_758_6857)">
<path d="M17.9432 8.00082C17.9148 7.74783 17.6197 7.55751 17.3645 7.55751C16.5398 7.55751 15.808 7.07347 15.501 6.32431C15.1877 5.55716 15.3899 4.66266 16.0043 4.09899C16.1978 3.92206 16.2214 3.62578 16.0592 3.42012C15.6369 2.88409 15.1573 2.39983 14.6334 1.98017C14.4284 1.81577 14.1272 1.83865 13.9494 2.03552C13.4129 2.62962 12.4493 2.85038 11.7047 2.53971C10.93 2.21378 10.4411 1.42857 10.4891 0.585759C10.5049 0.320858 10.3113 0.0906741 10.0473 0.0599259C9.37497 -0.0179177 8.69672 -0.0201751 8.02243 0.0546325C7.76181 0.0834347 7.5683 0.308169 7.57694 0.569723C7.60613 1.40428 7.11166 2.17564 6.34452 2.48989C5.60882 2.79044 4.65189 2.57131 4.11656 1.98243C3.93962 1.78844 3.64373 1.76462 3.43737 1.92552C2.89807 2.34876 2.40758 2.83334 1.98146 3.36501C1.81542 3.57168 1.83994 3.87122 2.0351 4.04879C2.66166 4.61619 2.86366 5.51839 2.53836 6.29449C2.22776 7.0344 1.45952 7.51103 0.580123 7.51103C0.294748 7.50185 0.0916545 7.69358 0.0601279 7.95311C-0.0189612 8.62902 -0.0198175 9.31809 0.0563135 9.99954C0.0847264 10.2536 0.38855 10.4423 0.646523 10.4423C1.43041 10.4224 2.18253 10.9073 2.4985 11.6754C2.81291 12.4426 2.61052 13.3367 1.99509 13.9011C1.80258 14.0781 1.77798 14.3736 1.94052 14.5791C2.35846 15.1118 2.8386 15.5963 3.36404 16.0196C3.57033 16.1857 3.87034 16.1624 4.04914 15.9653C4.58767 15.3698 5.55113 15.1494 6.29275 15.4607C7.06963 15.7858 7.55833 16.5709 7.51061 17.414C7.49497 17.6789 7.68911 17.9098 7.95214 17.9398C8.29621 17.9801 8.64207 18 8.98902 18C9.3183 18 9.64765 17.982 9.97701 17.9453C10.2379 17.9165 10.4311 17.6916 10.4224 17.4299C10.3922 16.5958 10.8878 15.8243 11.654 15.5107C12.3946 15.2082 13.3472 15.4296 13.8829 16.0176C14.0608 16.2112 14.3549 16.2347 14.5621 16.0744C15.1004 15.6523 15.59 15.168 16.018 14.6349C16.1842 14.4286 16.1606 14.1287 15.9643 13.9508C15.3379 13.3838 15.1348 12.4812 15.4602 11.7059C15.7659 10.9759 16.5056 10.4858 17.3012 10.4858L17.4125 10.4888C17.6708 10.5097 17.9081 10.3108 17.9393 10.0473C18.0188 9.3708 18.0196 8.6825 17.9432 8.00082ZM8.99984 14.1886C6.13418 14.1886 3.81125 11.8657 3.81125 9.0001C3.81125 6.13453 6.13426 3.8116 8.99984 3.8116C11.8654 3.8116 14.1884 6.13453 14.1884 9.0001C14.1884 9.97276 13.9203 10.8825 13.4545 11.6605L11.1826 9.38846C11.3471 9.00065 11.4339 8.58022 11.4339 8.14632C11.4339 7.29665 11.1029 6.4979 10.5021 5.89718C9.90134 5.29646 9.10259 4.96563 8.25309 4.96563C7.96958 4.96563 7.6874 5.0033 7.4144 5.07764C7.29483 5.11026 7.19706 5.20881 7.16522 5.32861C7.13268 5.45114 7.16935 5.5767 7.26509 5.67252C7.26509 5.67252 8.38674 6.80281 8.76203 7.17802C8.80134 7.21733 8.80126 7.31113 8.79573 7.34492L8.79223 7.36959C8.7544 7.78216 8.68146 8.2774 8.62128 8.46773C8.61319 8.47575 8.60556 8.48252 8.59731 8.49077C8.58867 8.49941 8.58073 8.50774 8.5724 8.51631C8.37958 8.57819 7.87671 8.65199 7.4576 8.68951L7.45768 8.68725L7.43884 8.692C7.43549 8.69239 7.42927 8.69285 7.42102 8.69285C7.37571 8.69285 7.30908 8.68017 7.24851 8.61968C6.85789 8.22906 5.78023 7.1591 5.78023 7.1591C5.68355 7.06273 5.58437 7.04249 5.51828 7.04249C5.36423 7.04249 5.22629 7.15381 5.18286 7.31347C4.8862 8.41129 5.20068 9.59218 6.0038 10.3954C6.60467 10.9962 7.4035 11.327 8.25316 11.327C8.68706 11.327 9.1075 11.2402 9.49524 11.0757L11.7919 13.3723C10.9855 13.8883 10.0281 14.1886 8.99984 14.1886Z" fill="white"/>
</g>
<defs>
<clipPath id="clip0_758_6857">
<rect width="18" height="18" fill="white"/>
</clipPath>
</defs>
</svg>
