<svg width="44" height="44" viewBox="0 0 44 44" fill="none" xmlns="http://www.w3.org/2000/svg">
<g clip-path="url(#clip0_730_426)">
<path d="M40.6866 38.6839V15.4727C40.6866 14.2861 39.7247 13.3242 38.5382 13.3242H5.46289C4.27635 13.3242 3.31445 14.2861 3.31445 15.4727V38.6839" stroke="#C22726" stroke-width="1.28906" stroke-miterlimit="10" stroke-linecap="round" stroke-linejoin="round"/>
<path d="M6.60438 38.6841H1.28906C0.933109 38.6841 0.644531 38.9727 0.644531 39.3286V40.5398C0.644531 41.7264 1.60643 42.6883 2.79297 42.6883H41.207C42.3936 42.6883 43.3555 41.7264 43.3555 40.5398V39.3286C43.3555 38.9727 43.0669 38.6841 42.7109 38.6841H27.3389L26.6334 39.3895C26.2305 39.7924 25.6841 40.0188 25.1142 40.0188H18.8857C18.3159 40.0188 17.7695 39.7924 17.3665 39.3895L16.661 38.6841H9.61211" stroke="#C22726" stroke-width="1.28906" stroke-miterlimit="10" stroke-linecap="round" stroke-linejoin="round"/>
<path d="M38.0176 15.9937H5.98438V36.0144H38.0176V15.9937Z" stroke="#C22726" stroke-width="1.28906" stroke-miterlimit="10" stroke-linecap="round" stroke-linejoin="round"/>
<path d="M16.6609 33.345C17.398 33.345 17.9956 32.7474 17.9956 32.0103V19.9978C17.9956 19.2606 17.398 18.6631 16.6609 18.6631C15.9238 18.6631 15.3262 19.2607 15.3262 19.9978V32.0102C15.3262 32.7474 15.9237 33.345 16.6609 33.345Z" stroke="#C22726" stroke-width="1.28906" stroke-miterlimit="10" stroke-linecap="round" stroke-linejoin="round"/>
<path d="M26.6722 22.9961V21.3325H28.6743C29.4114 21.3325 30.009 20.7349 30.009 19.9978C30.009 19.2607 29.4114 18.6631 28.6743 18.6631H22.0007C21.2635 18.6631 20.666 19.2607 20.666 19.9978C20.666 20.7349 21.2636 21.3325 22.0007 21.3325H24.0028V32.0102C24.0028 32.7474 24.6004 33.3449 25.3375 33.3449C26.0746 33.3449 26.6722 32.7473 26.6722 32.0102V26.004" stroke="#C22726" stroke-width="1.28906" stroke-miterlimit="10" stroke-linecap="round" stroke-linejoin="round"/>
<path d="M29.5508 5.77392L32.4265 2.8982C32.5876 2.73706 32.8063 2.64648 33.0342 2.64648H35.3476" stroke="#C22726" stroke-width="1.28906" stroke-miterlimit="10" stroke-linecap="round" stroke-linejoin="round"/>
<path d="M36.6824 3.9814C37.4195 3.9814 38.017 3.38384 38.017 2.64671C38.017 1.90958 37.4195 1.31201 36.6824 1.31201C35.9452 1.31201 35.3477 1.90958 35.3477 2.64671C35.3477 3.38384 35.9452 3.9814 36.6824 3.9814Z" stroke="#C22726" stroke-width="1.28906" stroke-miterlimit="10" stroke-linecap="round" stroke-linejoin="round"/>
<path d="M38.0163 10.6547C38.7535 10.6547 39.351 10.0572 39.351 9.32005C39.351 8.58292 38.7535 7.98535 38.0163 7.98535C37.2792 7.98535 36.6816 8.58292 36.6816 9.32005C36.6816 10.0572 37.2792 10.6547 38.0163 10.6547Z" stroke="#C22726" stroke-width="1.28906" stroke-miterlimit="10" stroke-linecap="round" stroke-linejoin="round"/>
<path d="M14.4492 5.77392L11.5734 2.8982C11.4123 2.73706 11.1937 2.64648 10.9658 2.64648H8.65234" stroke="#C22726" stroke-width="1.28906" stroke-miterlimit="10" stroke-linecap="round" stroke-linejoin="round"/>
<path d="M7.31907 3.9814C8.0562 3.9814 8.65377 3.38384 8.65377 2.64671C8.65377 1.90958 8.0562 1.31201 7.31907 1.31201C6.58194 1.31201 5.98438 1.90958 5.98438 2.64671C5.98438 3.38384 6.58194 3.9814 7.31907 3.9814Z" stroke="#C22726" stroke-width="1.28906" stroke-miterlimit="10" stroke-linecap="round" stroke-linejoin="round"/>
<path d="M36.6819 9.32031H30.1016" stroke="#C22726" stroke-width="1.28906" stroke-miterlimit="10" stroke-linecap="round" stroke-linejoin="round"/>
<path d="M5.98313 10.6547C6.72026 10.6547 7.31783 10.0572 7.31783 9.32005C7.31783 8.58292 6.72026 7.98535 5.98313 7.98535C5.246 7.98535 4.64844 8.58292 4.64844 9.32005C4.64844 10.0572 5.246 10.6547 5.98313 10.6547Z" stroke="#C22726" stroke-width="1.28906" stroke-miterlimit="10" stroke-linecap="round" stroke-linejoin="round"/>
<path d="M7.31836 9.32031H13.8987" stroke="#C22726" stroke-width="1.28906" stroke-miterlimit="10" stroke-linecap="round" stroke-linejoin="round"/>
<path d="M32.6777 13.3242V12.0798C32.6777 11.8357 32.5398 11.6125 32.3214 11.5034L30.8769 10.7811C30.7265 10.7059 30.6108 10.5752 30.5567 10.4159C30.43 10.0428 30.2795 9.68064 30.1071 9.3313C30.0326 9.18031 30.0218 9.00586 30.075 8.84619L30.5859 7.31341C30.6631 7.0818 30.6029 6.8264 30.4302 6.65384L28.6704 4.89401C28.4977 4.72136 28.2424 4.66112 28.0108 4.73829L26.478 5.24919C26.3184 5.30247 26.1439 5.29164 25.9929 5.21713C25.6435 5.04474 25.2814 4.89427 24.9083 4.76751C24.7491 4.71345 24.6183 4.5977 24.5431 4.4473L23.8208 3.00278C23.7117 2.78441 23.4885 2.64648 23.2444 2.64648H20.7556C20.5115 2.64648 20.2883 2.78441 20.1792 3.00278L19.4569 4.4473C19.3817 4.5977 19.2509 4.71345 19.0917 4.76751C18.7186 4.89427 18.3564 5.04474 18.0071 5.21713C17.8561 5.29164 17.6816 5.30238 17.522 5.24919L15.9892 4.73829C15.7576 4.66112 15.5023 4.72136 15.3296 4.89401L13.5698 6.65384C13.3971 6.82648 13.3369 7.0818 13.4141 7.31341L13.925 8.84619C13.9782 9.00586 13.9674 9.18031 13.8929 9.3313C13.7205 9.68073 13.57 10.0429 13.4433 10.4159C13.3892 10.5751 13.2735 10.7059 13.1231 10.7811L11.6786 11.5034C11.4602 11.6126 11.3223 11.8357 11.3223 12.0798V13.3242" stroke="#C22726" stroke-width="1.28906" stroke-miterlimit="10" stroke-linecap="round" stroke-linejoin="round"/>
<path d="M21.6523 9.33527C21.7672 9.32538 21.8834 9.32031 22.0009 9.32031C24.2123 9.32031 26.0051 11.1131 26.0051 13.3245" stroke="#C22726" stroke-width="1.28906" stroke-miterlimit="10" stroke-linecap="round" stroke-linejoin="round"/>
<path d="M17.9961 13.3242C17.9961 12.3498 18.3441 11.4567 18.9226 10.7625" stroke="#C22726" stroke-width="1.28906" stroke-miterlimit="10" stroke-linecap="round" stroke-linejoin="round"/>
</g>
<defs>
<clipPath id="clip0_730_426">
<rect width="44" height="44" fill="white"/>
</clipPath>
</defs>
</svg>
