<svg width="82" height="82" viewBox="0 0 82 82" fill="none" xmlns="http://www.w3.org/2000/svg">
<g clip-path="url(#clip0_639_2703)">
<path d="M31.4326 27.3333H28.6992V30.0666H31.4326V27.3333Z" fill="url(#paint0_linear_639_2703)"/>
<path d="M31.4326 32.7998H28.6992V35.5331H31.4326V32.7998Z" fill="url(#paint1_linear_639_2703)"/>
<path d="M31.4326 38.2666H28.6992V40.9999H31.4326V38.2666Z" fill="url(#paint2_linear_639_2703)"/>
<path d="M31.4326 43.7334H28.6992V46.4667H31.4326V43.7334Z" fill="url(#paint3_linear_639_2703)"/>
<path d="M36.8993 27.3333H34.166V30.0666H36.8993V27.3333Z" fill="url(#paint4_linear_639_2703)"/>
<path d="M36.8993 32.8H34.166V35.5334H36.8993V32.8Z" fill="url(#paint5_linear_639_2703)"/>
<path d="M36.8993 38.2666H34.166V40.9999H36.8993V38.2666Z" fill="url(#paint6_linear_639_2703)"/>
<path d="M36.8993 43.7334H34.166V46.4667H36.8993V43.7334Z" fill="url(#paint7_linear_639_2703)"/>
<path d="M42.3661 27.3335H39.6328V30.0668H42.3661V27.3335Z" fill="url(#paint8_linear_639_2703)"/>
<path d="M42.3661 32.8H39.6328V35.5334H42.3661V32.8Z" fill="url(#paint9_linear_639_2703)"/>
<path d="M42.3661 38.2668H39.6328V41.0002H42.3661V38.2668Z" fill="url(#paint10_linear_639_2703)"/>
<path d="M42.3661 43.7332H39.6328V46.4665H42.3661V43.7332Z" fill="url(#paint11_linear_639_2703)"/>
<path d="M47.8349 27.3335H45.1016V30.0668H47.8349V27.3335Z" fill="url(#paint12_linear_639_2703)"/>
<path d="M36.8993 21.8667H34.166V24.6H36.8993V21.8667Z" fill="url(#paint13_linear_639_2703)"/>
<path d="M42.3661 21.8667H39.6328V24.6H42.3661V21.8667Z" fill="url(#paint14_linear_639_2703)"/>
<path d="M47.8349 21.8667H45.1016V24.6H47.8349V21.8667Z" fill="url(#paint15_linear_639_2703)"/>
<path d="M47.8349 32.8H45.1016V35.5334H47.8349V32.8Z" fill="url(#paint16_linear_639_2703)"/>
<path d="M47.8349 38.2668H45.1016V41.0002H47.8349V38.2668Z" fill="url(#paint17_linear_639_2703)"/>
<path d="M47.8349 43.7332H45.1016V46.4665H47.8349V43.7332Z" fill="url(#paint18_linear_639_2703)"/>
<path d="M53.2997 27.3333H50.5664V30.0666H53.2997V27.3333Z" fill="url(#paint19_linear_639_2703)"/>
<path d="M53.2997 32.8H50.5664V35.5334H53.2997V32.8Z" fill="url(#paint20_linear_639_2703)"/>
<path d="M53.2997 38.2666H50.5664V40.9999H53.2997V38.2666Z" fill="url(#paint21_linear_639_2703)"/>
<path d="M53.2997 43.7334H50.5664V46.4667H53.2997V43.7334Z" fill="url(#paint22_linear_639_2703)"/>
<path d="M80.6349 20.5C80.6344 20.5 80.6339 20.5 80.6333 20.5H60.1333V1.36667C60.1338 0.612267 59.5226 0.000512822 58.7682 3.22046e-07C58.7677 3.22046e-07 58.7672 3.22046e-07 58.7667 3.22046e-07H23.2333C22.4789 -0.000512178 21.8672 0.61073 21.8667 1.36513C21.8667 1.36564 21.8667 1.36615 21.8667 1.36667V20.5H1.36667C0.612267 20.4995 0.000512822 21.1107 3.22046e-07 21.8651C3.22046e-07 21.8656 3.22046e-07 21.8662 3.22046e-07 21.8667V71.0667C-0.000512178 71.8211 0.61073 72.4328 1.36513 72.4333C1.36564 72.4333 1.36615 72.4333 1.36667 72.4333H4.22351C4.14425 72.8847 4.1029 73.3418 4.1 73.8V80.6333C4.09949 81.3877 4.71073 81.9995 5.46513 82C5.46564 82 5.46615 82 5.46667 82H76.5333C77.2877 82.0005 77.8995 81.3893 77.9 80.6349C77.9 80.6344 77.9 80.6339 77.9 80.6333V73.8C77.8973 73.3418 77.8559 72.8847 77.7765 72.4333H80.6333C81.3877 72.4338 81.9995 71.8226 82 71.0682C82 71.0677 82 71.0672 82 71.0667V21.8667C82.0005 21.1123 81.3893 20.5005 80.6349 20.5ZM58.7667 58.7667C58.7667 60.2763 57.543 61.5 56.0333 61.5C54.5237 61.5 53.3 60.2763 53.3 58.7667C53.3 57.257 54.5237 56.0333 56.0333 56.0333C57.5421 56.0352 58.7648 57.2579 58.7667 58.7667ZM25.9667 56.0333C27.4763 56.0333 28.7 57.257 28.7 58.7667C28.7 60.2763 27.4763 61.5 25.9667 61.5C24.457 61.5 23.2333 60.2763 23.2333 58.7667C23.2352 57.2579 24.4579 56.0352 25.9667 56.0333ZM17.7667 79.2667H6.83333V73.8C6.83333 70.7809 9.28086 68.3333 12.3 68.3333C15.3191 68.3333 17.7667 70.7809 17.7667 73.8V79.2667ZM9.56667 62.8667C9.56667 61.357 10.7903 60.1333 12.3 60.1333C13.8097 60.1333 15.0333 61.357 15.0333 62.8667C15.0333 64.3763 13.8097 65.6 12.3 65.6C10.7912 65.5981 9.56855 64.3755 9.56667 62.8667ZM17.9737 67.8934C17.4583 67.3963 16.8804 66.9686 16.2544 66.6209C18.339 64.437 18.2585 60.9766 16.0746 58.8919C13.8906 56.8072 10.4302 56.8878 8.34555 59.0718C6.3292 61.1841 6.3292 64.5084 8.34555 66.6207C7.04107 67.3447 5.9573 68.4088 5.20939 69.6998H2.73333V23.2333H21.8667V55.1887C19.9899 57.2946 20.0533 60.4912 22.0122 62.5209C19.9622 63.6547 18.4932 65.6091 17.9737 67.8934ZM31.4333 79.2667H20.5V69.7C20.5 66.6809 22.9475 64.2333 25.9667 64.2333C28.9858 64.2333 31.4333 66.6809 31.4333 69.7V79.2667ZM47.8333 79.2667H34.1667V69.7C34.1667 65.9261 37.2261 62.8667 41 62.8667C44.7739 62.8667 47.8333 65.9261 47.8333 69.7V79.2667ZM36.9 56.0333C36.9 53.7689 38.7356 51.9333 41 51.9333C43.2644 51.9333 45.1 53.7689 45.1 56.0333C45.1 58.2977 43.2644 60.1333 41 60.1333C38.7366 60.1309 36.9024 58.2967 36.9 56.0333ZM49.3233 65.0012C48.4082 63.3879 47.0466 62.0733 45.4022 61.2156C48.2888 58.7843 48.6578 54.4733 46.2266 51.5867C43.7953 48.7001 39.4844 48.3311 36.5978 50.7623C33.7112 53.1936 33.3422 57.5046 35.7734 60.3911C36.0241 60.6889 36.2999 60.9646 36.5978 61.2156C34.9534 62.0733 33.5918 63.3879 32.6767 65.0012C31.9581 63.9762 31.0158 63.128 29.9211 62.5209C32.0164 60.3775 31.9774 56.9411 29.8338 54.8459C28.4537 53.4966 26.4609 52.9821 24.6 53.4941V2.73333H57.4V53.4941C56.9546 53.3712 56.4953 53.306 56.0333 53.3C53.0222 53.292 50.5747 55.7265 50.5667 58.7378C50.5629 60.1468 51.105 61.5027 52.0789 62.5209C50.9842 63.128 50.0419 63.9762 49.3233 65.0012ZM61.5 73.8V79.2667H50.5667V69.7C50.5667 66.6809 53.0142 64.2333 56.0333 64.2333C59.0525 64.2333 61.5 66.6809 61.5 69.7V73.8ZM75.1667 79.2667H64.2333V73.8C64.2333 70.7809 66.6809 68.3333 69.7 68.3333C72.7191 68.3333 75.1667 70.7809 75.1667 73.8V79.2667ZM66.9667 62.8667C66.9667 61.357 68.1903 60.1333 69.7 60.1333C71.2097 60.1333 72.4333 61.357 72.4333 62.8667C72.4333 64.3763 71.2097 65.6 69.7 65.6C68.1912 65.5981 66.9685 64.3755 66.9667 62.8667ZM79.2667 69.7H76.7906C76.0427 68.409 74.9589 67.3449 73.6544 66.6209C75.739 64.437 75.6585 60.9766 73.4746 58.8919C71.2906 56.8074 67.8302 56.8878 65.7456 59.0718C63.7292 61.1841 63.7292 64.5084 65.7456 66.6207C65.1196 66.9684 64.5415 67.3961 64.0263 67.8933C63.507 65.6089 62.0378 63.6546 59.9878 62.5207C61.9467 60.4911 62.0103 57.2944 60.1335 55.1886V23.2333H79.2668V69.7H79.2667Z" fill="url(#paint23_linear_639_2703)"/>
<path d="M66.9658 31.4333H64.2324V53.3H66.9658V31.4333Z" fill="url(#paint24_linear_639_2703)"/>
<path d="M75.1669 31.4333H72.4336V53.3H75.1669V31.4333Z" fill="url(#paint25_linear_639_2703)"/>
<path d="M9.56732 31.4333H6.83398V53.3H9.56732V31.4333Z" fill="url(#paint26_linear_639_2703)"/>
<path d="M17.7685 31.4333H15.0352V53.3H17.7685V31.4333Z" fill="url(#paint27_linear_639_2703)"/>
<path d="M49.2018 5.46655C49.2013 5.46655 49.2008 5.46655 49.2003 5.46655H32.8003C32.0459 5.46604 31.4341 6.07728 31.4336 6.83168C31.4336 6.83219 31.4336 6.83271 31.4336 6.83322V17.7666C31.4331 18.521 32.0443 19.1327 32.7987 19.1332C32.7992 19.1332 32.7997 19.1332 32.8003 19.1332H49.2003C49.9547 19.1337 50.5664 18.5225 50.5669 17.7681C50.5669 17.7676 50.5669 17.7671 50.5669 17.7666V6.83322C50.5674 6.07882 49.9562 5.46707 49.2018 5.46655ZM47.8336 16.3999H34.1669V8.19989H47.8336V16.3999Z" fill="url(#paint28_linear_639_2703)"/>
</g>
<defs>
<linearGradient id="paint0_linear_639_2703" x1="30.0659" y1="27.3333" x2="30.0659" y2="30.0666" gradientUnits="userSpaceOnUse">
<stop stop-color="#E31937"/>
<stop offset="1" stop-color="#9B1B08"/>
</linearGradient>
<linearGradient id="paint1_linear_639_2703" x1="30.0659" y1="32.7998" x2="30.0659" y2="35.5331" gradientUnits="userSpaceOnUse">
<stop stop-color="#E31937"/>
<stop offset="1" stop-color="#9B1B08"/>
</linearGradient>
<linearGradient id="paint2_linear_639_2703" x1="30.0659" y1="38.2666" x2="30.0659" y2="40.9999" gradientUnits="userSpaceOnUse">
<stop stop-color="#E31937"/>
<stop offset="1" stop-color="#9B1B08"/>
</linearGradient>
<linearGradient id="paint3_linear_639_2703" x1="30.0659" y1="43.7334" x2="30.0659" y2="46.4667" gradientUnits="userSpaceOnUse">
<stop stop-color="#E31937"/>
<stop offset="1" stop-color="#9B1B08"/>
</linearGradient>
<linearGradient id="paint4_linear_639_2703" x1="35.5327" y1="27.3333" x2="35.5327" y2="30.0666" gradientUnits="userSpaceOnUse">
<stop stop-color="#E31937"/>
<stop offset="1" stop-color="#9B1B08"/>
</linearGradient>
<linearGradient id="paint5_linear_639_2703" x1="35.5327" y1="32.8" x2="35.5327" y2="35.5334" gradientUnits="userSpaceOnUse">
<stop stop-color="#E31937"/>
<stop offset="1" stop-color="#9B1B08"/>
</linearGradient>
<linearGradient id="paint6_linear_639_2703" x1="35.5327" y1="38.2666" x2="35.5327" y2="40.9999" gradientUnits="userSpaceOnUse">
<stop stop-color="#E31937"/>
<stop offset="1" stop-color="#9B1B08"/>
</linearGradient>
<linearGradient id="paint7_linear_639_2703" x1="35.5327" y1="43.7334" x2="35.5327" y2="46.4667" gradientUnits="userSpaceOnUse">
<stop stop-color="#E31937"/>
<stop offset="1" stop-color="#9B1B08"/>
</linearGradient>
<linearGradient id="paint8_linear_639_2703" x1="40.9995" y1="27.3335" x2="40.9995" y2="30.0668" gradientUnits="userSpaceOnUse">
<stop stop-color="#E31937"/>
<stop offset="1" stop-color="#9B1B08"/>
</linearGradient>
<linearGradient id="paint9_linear_639_2703" x1="40.9995" y1="32.8" x2="40.9995" y2="35.5334" gradientUnits="userSpaceOnUse">
<stop stop-color="#E31937"/>
<stop offset="1" stop-color="#9B1B08"/>
</linearGradient>
<linearGradient id="paint10_linear_639_2703" x1="40.9995" y1="38.2668" x2="40.9995" y2="41.0002" gradientUnits="userSpaceOnUse">
<stop stop-color="#E31937"/>
<stop offset="1" stop-color="#9B1B08"/>
</linearGradient>
<linearGradient id="paint11_linear_639_2703" x1="40.9995" y1="43.7332" x2="40.9995" y2="46.4665" gradientUnits="userSpaceOnUse">
<stop stop-color="#E31937"/>
<stop offset="1" stop-color="#9B1B08"/>
</linearGradient>
<linearGradient id="paint12_linear_639_2703" x1="46.4682" y1="27.3335" x2="46.4682" y2="30.0668" gradientUnits="userSpaceOnUse">
<stop stop-color="#E31937"/>
<stop offset="1" stop-color="#9B1B08"/>
</linearGradient>
<linearGradient id="paint13_linear_639_2703" x1="35.5327" y1="21.8667" x2="35.5327" y2="24.6" gradientUnits="userSpaceOnUse">
<stop stop-color="#E31937"/>
<stop offset="1" stop-color="#9B1B08"/>
</linearGradient>
<linearGradient id="paint14_linear_639_2703" x1="40.9995" y1="21.8667" x2="40.9995" y2="24.6" gradientUnits="userSpaceOnUse">
<stop stop-color="#E31937"/>
<stop offset="1" stop-color="#9B1B08"/>
</linearGradient>
<linearGradient id="paint15_linear_639_2703" x1="46.4682" y1="21.8667" x2="46.4682" y2="24.6" gradientUnits="userSpaceOnUse">
<stop stop-color="#E31937"/>
<stop offset="1" stop-color="#9B1B08"/>
</linearGradient>
<linearGradient id="paint16_linear_639_2703" x1="46.4682" y1="32.8" x2="46.4682" y2="35.5334" gradientUnits="userSpaceOnUse">
<stop stop-color="#E31937"/>
<stop offset="1" stop-color="#9B1B08"/>
</linearGradient>
<linearGradient id="paint17_linear_639_2703" x1="46.4682" y1="38.2668" x2="46.4682" y2="41.0002" gradientUnits="userSpaceOnUse">
<stop stop-color="#E31937"/>
<stop offset="1" stop-color="#9B1B08"/>
</linearGradient>
<linearGradient id="paint18_linear_639_2703" x1="46.4682" y1="43.7332" x2="46.4682" y2="46.4665" gradientUnits="userSpaceOnUse">
<stop stop-color="#E31937"/>
<stop offset="1" stop-color="#9B1B08"/>
</linearGradient>
<linearGradient id="paint19_linear_639_2703" x1="51.9331" y1="27.3333" x2="51.9331" y2="30.0666" gradientUnits="userSpaceOnUse">
<stop stop-color="#E31937"/>
<stop offset="1" stop-color="#9B1B08"/>
</linearGradient>
<linearGradient id="paint20_linear_639_2703" x1="51.9331" y1="32.8" x2="51.9331" y2="35.5334" gradientUnits="userSpaceOnUse">
<stop stop-color="#E31937"/>
<stop offset="1" stop-color="#9B1B08"/>
</linearGradient>
<linearGradient id="paint21_linear_639_2703" x1="51.9331" y1="38.2666" x2="51.9331" y2="40.9999" gradientUnits="userSpaceOnUse">
<stop stop-color="#E31937"/>
<stop offset="1" stop-color="#9B1B08"/>
</linearGradient>
<linearGradient id="paint22_linear_639_2703" x1="51.9331" y1="43.7334" x2="51.9331" y2="46.4667" gradientUnits="userSpaceOnUse">
<stop stop-color="#E31937"/>
<stop offset="1" stop-color="#9B1B08"/>
</linearGradient>
<linearGradient id="paint23_linear_639_2703" x1="41" y1="0" x2="41" y2="82" gradientUnits="userSpaceOnUse">
<stop stop-color="#E31937"/>
<stop offset="1" stop-color="#9B1B08"/>
</linearGradient>
<linearGradient id="paint24_linear_639_2703" x1="65.5991" y1="31.4333" x2="65.5991" y2="53.3" gradientUnits="userSpaceOnUse">
<stop stop-color="#E31937"/>
<stop offset="1" stop-color="#9B1B08"/>
</linearGradient>
<linearGradient id="paint25_linear_639_2703" x1="73.8003" y1="31.4333" x2="73.8003" y2="53.3" gradientUnits="userSpaceOnUse">
<stop stop-color="#E31937"/>
<stop offset="1" stop-color="#9B1B08"/>
</linearGradient>
<linearGradient id="paint26_linear_639_2703" x1="8.20065" y1="31.4333" x2="8.20065" y2="53.3" gradientUnits="userSpaceOnUse">
<stop stop-color="#E31937"/>
<stop offset="1" stop-color="#9B1B08"/>
</linearGradient>
<linearGradient id="paint27_linear_639_2703" x1="16.4018" y1="31.4333" x2="16.4018" y2="53.3" gradientUnits="userSpaceOnUse">
<stop stop-color="#E31937"/>
<stop offset="1" stop-color="#9B1B08"/>
</linearGradient>
<linearGradient id="paint28_linear_639_2703" x1="41.0003" y1="5.46655" x2="41.0003" y2="19.1332" gradientUnits="userSpaceOnUse">
<stop stop-color="#E31937"/>
<stop offset="1" stop-color="#9B1B08"/>
</linearGradient>
<clipPath id="clip0_639_2703">
<rect width="82" height="82" fill="white"/>
</clipPath>
</defs>
</svg>
