<svg width="82" height="82" viewBox="0 0 82 82" fill="none" xmlns="http://www.w3.org/2000/svg">
<g clip-path="url(#clip0_639_2700)">
<path d="M41.0009 21.2956C43.1267 21.2956 44.8553 19.5664 44.8553 17.4412C44.8553 15.3154 43.1261 13.5862 41.0009 13.5862C38.8757 13.5862 37.1465 15.3154 37.1465 17.4412C37.1465 19.5664 38.8757 21.2956 41.0009 21.2956ZM41.0009 15.9885C41.8017 15.9885 42.4529 16.6404 42.4529 17.4412C42.4529 18.2413 41.8017 18.8932 41.0009 18.8932C40.2001 18.8932 39.5488 18.242 39.5488 17.4412C39.5488 16.6404 40.2001 15.9885 41.0009 15.9885Z" fill="url(#paint0_linear_639_2700)"/>
<path d="M80.7988 74.1141H79.3468V70.0088C79.3468 69.3457 78.8088 68.8077 78.1456 68.8077H74.0404V64.7024C74.0404 64.0393 73.503 63.5012 72.8392 63.5012H71.3878V37.215H72.8392C73.503 37.215 74.0404 36.6769 74.0404 36.0138V31.9085H78.1456C78.8094 31.9085 79.3468 31.3705 79.3468 30.7074V25.4009C79.3468 24.7378 78.8094 24.1998 78.1456 24.1998H75.8678L41.6838 0.533558C41.2728 0.248905 40.7279 0.248905 40.3162 0.533558L6.13286 24.1998H3.85439C3.19124 24.1998 2.65321 24.7372 2.65321 25.4009V30.7074C2.65321 31.3705 3.19124 31.9085 3.85439 31.9085H7.95964V36.0138C7.95964 36.6769 8.49767 37.215 9.16081 37.215H10.6129V63.5012H9.16081C8.49767 63.5012 7.95964 64.0386 7.95964 64.7024V68.8077H3.85439C3.19124 68.8077 2.65321 69.3457 2.65321 70.0088V74.1141H1.20117C0.537399 74.1141 0 74.6515 0 75.3153V80.6211C0 81.2848 0.537399 81.8222 1.20117 81.8222H80.7988C81.4626 81.8222 82 81.2848 82 80.6211V75.3153C82 74.6521 81.4626 74.1141 80.7988 74.1141ZM71.638 68.8077H60.7743V65.9036H71.638V68.8077ZM63.4269 63.5012V37.215H68.9848V63.5012H63.4269ZM71.638 34.8126H60.7743V31.9085H71.638V34.8126ZM59.5731 37.215H61.0245V63.5012H59.5731C58.9093 63.5012 58.3719 64.0386 58.3719 64.7024V68.8077H48.8345V64.7024C48.8345 64.0386 48.2965 63.5012 47.6333 63.5012H46.1813V37.215H47.6333C48.2965 37.215 48.8345 36.6769 48.8345 36.0138V31.9085H58.3719V36.0138C58.3719 36.6769 58.9093 37.215 59.5731 37.215ZM35.5685 31.9085H46.4322V34.8126H35.5685V31.9085ZM38.221 37.215H43.779V63.5012H38.221V37.215ZM46.4322 65.9036V68.8077H35.5685V65.9036H46.4322ZM5.05556 26.6021H6.50822H6.50948H6.5101H26.0173C26.681 26.6021 27.2184 26.0641 27.2184 25.4009C27.2184 24.7372 26.681 24.1998 26.0173 24.1998H10.3532L41 2.9822L71.6474 24.1998H30.8219C30.1588 24.1998 29.6208 24.7372 29.6208 25.4009C29.6208 26.0641 30.1588 26.6021 30.8219 26.6021H75.4761H75.4799H76.9444V29.5062H5.05556V26.6021ZM10.362 31.9085H21.2263V34.8126H10.362V31.9085ZM18.5731 37.215V63.5012H13.0152V37.215H18.5731ZM10.362 65.9036H21.2263V68.8077H10.362V65.9036ZM22.4275 63.5012H20.9755V37.215H22.4275C23.0907 37.215 23.6287 36.6769 23.6287 36.0138V31.9085H33.1661V36.0138C33.1661 36.6769 33.7035 37.215 34.3673 37.215H35.8187V63.5012H34.3673C33.7035 63.5012 33.1661 64.0386 33.1661 64.7024V68.8077H23.6287V64.7024C23.6287 64.0386 23.0907 63.5012 22.4275 63.5012ZM5.05556 71.21H76.9444V74.1141H5.05556V71.21ZM79.5977 79.4205H2.40234V76.5164H79.5977V79.4205Z" fill="url(#paint1_linear_639_2700)"/>
</g>
<defs>
<linearGradient id="paint0_linear_639_2700" x1="41.0009" y1="13.5862" x2="41.0009" y2="21.2956" gradientUnits="userSpaceOnUse">
<stop stop-color="#E31937"/>
<stop offset="1" stop-color="#9B1B08"/>
</linearGradient>
<linearGradient id="paint1_linear_639_2700" x1="41" y1="0.320068" x2="41" y2="81.8222" gradientUnits="userSpaceOnUse">
<stop stop-color="#E31937"/>
<stop offset="1" stop-color="#9B1B08"/>
</linearGradient>
<clipPath id="clip0_639_2700">
<rect width="82" height="82" fill="white"/>
</clipPath>
</defs>
</svg>
