<svg width="20" height="20" viewBox="0 0 20 20" fill="none" xmlns="http://www.w3.org/2000/svg">
<path d="M15.625 11.1562V15C15.625 15.1687 15.5562 15.325 15.4437 15.4437C15.3562 15.525 13.3438 17.5 10 17.5C6.65625 17.5 4.64375 15.525 4.55625 15.4437C4.44375 15.325 4.375 15.1687 4.375 15V11.1562L9.1625 13.55C9.41875 13.6812 9.7125 13.75 10 13.75C10.2875 13.75 10.5813 13.6812 10.8375 13.55L15.625 11.1562ZM18.75 12.6737V8.19873L19.0294 8.05873C19.2413 7.95311 19.375 7.73686 19.375 7.49998C19.375 7.26311 19.2413 7.04686 19.0294 6.94061L10.2794 2.56561C10.1038 2.47748 9.89625 2.47748 9.72 2.56561L0.97 6.94061C0.75875 7.04686 0.625 7.26311 0.625 7.49998C0.625 7.73686 0.75875 7.95311 0.970625 8.05936L9.72062 12.4344C9.80813 12.4781 9.90438 12.5 10 12.5C10.0956 12.5 10.1919 12.4781 10.2794 12.4344L17.5 8.82373V12.6737C17.1281 12.8906 16.875 13.2887 16.875 13.75C16.875 14.4394 17.4356 15 18.125 15C18.8144 15 19.375 14.4394 19.375 13.75C19.375 13.2894 19.1219 12.8906 18.75 12.6737Z" fill="white"/>
</svg>
