<svg width="45" height="45" viewBox="0 0 45 45" fill="none" xmlns="http://www.w3.org/2000/svg">
<g clip-path="url(#clip0_397_185)">
<path d="M9.16504 4.94647C6.8384 4.94647 4.94629 6.83858 4.94629 9.16522C4.94629 11.4919 6.8384 13.384 9.16504 13.384C11.4917 13.384 13.3838 11.4919 13.3838 9.16522C13.3838 6.83858 11.4917 4.94647 9.16504 4.94647ZM9.16504 11.9777C7.61395 11.9777 6.35254 10.7163 6.35254 9.16522C6.35254 7.61413 7.61395 6.35272 9.16504 6.35272C10.7161 6.35272 11.9775 7.61413 11.9775 9.16522C11.9775 10.7163 10.7161 11.9777 9.16504 11.9777Z" fill="#C62D17"/>
<path d="M40.5753 34.2471L39.5811 33.2529L34.4532 38.3808L33.544 37.4716L32.5498 38.4659L34.4532 40.3692L40.5753 34.2471Z" fill="#C62D17"/>
<path d="M24.6094 8.43748H26.0156V9.84373H24.6094V8.43748Z" fill="#C62D17"/>
<path d="M33.0469 8.43748H34.4531V9.84373H33.0469V8.43748Z" fill="#C62D17"/>
<path d="M30.2344 8.43748H31.6406V9.84373H30.2344V8.43748Z" fill="#C62D17"/>
<path d="M27.4219 8.43748H28.8281V9.84373H27.4219V8.43748Z" fill="#C62D17"/>
<path d="M16.875 26.0156H28.125C29.288 26.0156 30.2344 25.0692 30.2344 23.9063V23.2031H39.375C42.0884 23.2031 44.2969 20.9953 44.2969 18.2813V13.3594C44.2969 10.6453 42.0884 8.4375 39.375 8.4375H37.2656V7.73438C37.2656 6.57141 36.3192 5.625 35.1562 5.625H23.9062C22.7433 5.625 21.7969 6.57141 21.7969 7.73438V8.4375H17.6027V7.2225L15.757 6.71836C15.6966 6.55664 15.6291 6.39563 15.5559 6.23672L16.5059 4.57313L13.758 1.82532L12.0952 2.77453C11.9355 2.70141 11.7752 2.63391 11.6135 2.57344L11.1087 0.727737H7.2225L6.71766 2.57344C6.55594 2.63391 6.39563 2.70071 6.23672 2.77453L4.57313 1.82532L1.82531 4.57313L2.77453 6.23672C2.70141 6.39563 2.63391 6.55664 2.57344 6.71836L0.727734 7.2225V11.108L2.57344 11.6128C2.63391 11.7745 2.70141 11.9355 2.77453 12.0945L1.82461 13.758L4.57242 16.5052L6.23602 15.5559C6.39492 15.6291 6.55523 15.6966 6.71695 15.757L7.2218 17.6027H11.108L11.6128 15.757C11.7738 15.6966 11.9348 15.6291 12.0945 15.5559L13.7573 16.5045L16.5052 13.7573L15.5552 12.0938C15.6284 11.9348 15.6959 11.7738 15.7563 11.6121L17.602 11.1073V9.84375H21.7969V10.5469C21.7969 11.7098 22.7433 12.6563 23.9062 12.6563H35.1562C36.3192 12.6563 37.2656 11.7098 37.2656 10.5469V9.84375H39.375C41.3135 9.84375 42.8906 11.4209 42.8906 13.3594V18.2813C42.8906 20.2198 41.3135 21.7969 39.375 21.7969H30.2344V21.0938C30.2344 19.9308 29.288 18.9844 28.125 18.9844H16.875C15.712 18.9844 14.7656 19.9308 14.7656 21.0938V21.7969H5.625C2.91164 21.7969 0.703125 24.0054 0.703125 26.7188V32.3438C0.703125 35.0571 2.91164 37.2656 5.625 37.2656H7.73438V37.9688C7.73438 39.1317 8.68078 40.0781 9.84375 40.0781H21.0938C22.2567 40.0781 23.2031 39.1317 23.2031 37.9688V37.2656H28.864C29.2205 41.2017 32.535 44.2969 36.5625 44.2969C40.827 44.2969 44.2969 40.827 44.2969 36.5625C44.2969 32.298 40.827 28.8281 36.5625 28.8281C32.535 28.8281 29.2205 31.9233 28.864 35.8594H23.2031V35.1563C23.2031 33.9933 22.2567 33.0469 21.0938 33.0469H9.84375C8.68078 33.0469 7.73438 33.9933 7.73438 35.1563V35.8594H5.625C3.68648 35.8594 2.10938 34.2823 2.10938 32.3438V26.7188C2.10938 24.7802 3.68648 23.2031 5.625 23.2031H14.7656V23.9063C14.7656 25.0692 15.712 26.0156 16.875 26.0156ZM16.1965 10.035L14.6545 10.4569L14.5413 10.826C14.4401 11.1516 14.3051 11.4757 14.1391 11.7893L13.9577 12.131L14.7523 13.5225L13.5232 14.7523L12.131 13.9584L11.79 14.1391C11.4771 14.3051 11.153 14.4401 10.8267 14.5406L10.4583 14.6545L10.0357 16.1965H8.29688L7.8743 14.6545L7.50586 14.5406C7.18102 14.4401 6.85688 14.3058 6.54258 14.1391L6.20086 13.9584L4.80938 14.7523L3.57891 13.5225L4.37344 12.131L4.19203 11.7893C4.02609 11.4757 3.89039 11.1516 3.78984 10.826L3.67664 10.4569L2.13469 10.035V8.29547L3.67664 7.8743L3.79055 7.50516C3.89109 7.17961 4.02609 6.85547 4.19203 6.54258L4.37344 6.20016L3.57891 4.80868L4.80797 3.57891L6.19945 4.37274L6.54117 4.19203C6.85688 4.02539 7.18102 3.88969 7.50445 3.78985L7.87289 3.67594L8.29547 2.13399H10.0343L10.4569 3.67594L10.8253 3.78985C11.1502 3.89039 11.4743 4.02539 11.7886 4.19203L12.1296 4.37274L13.5218 3.57891L14.7509 4.80868L13.9563 6.20016L14.1377 6.54188C14.3037 6.85477 14.4394 7.17891 14.5392 7.50446L14.6531 7.8736L16.1951 8.29477V10.035H16.1965ZM35.8594 10.5469C35.8594 10.9343 35.5444 11.25 35.1562 11.25H23.9062C23.5181 11.25 23.2031 10.9343 23.2031 10.5469V7.73438C23.2031 7.34696 23.5181 7.03125 23.9062 7.03125H35.1562C35.5444 7.03125 35.8594 7.34696 35.8594 7.73438V10.5469ZM36.5625 30.2344C40.0521 30.2344 42.8906 33.0729 42.8906 36.5625C42.8906 40.0521 40.0521 42.8906 36.5625 42.8906C33.0729 42.8906 30.2344 40.0521 30.2344 36.5625C30.2344 33.0729 33.0729 30.2344 36.5625 30.2344ZM9.14062 35.1563C9.14062 34.7681 9.45562 34.4531 9.84375 34.4531H21.0938C21.4819 34.4531 21.7969 34.7681 21.7969 35.1563V37.9688C21.7969 38.3569 21.4819 38.6719 21.0938 38.6719H9.84375C9.45562 38.6719 9.14062 38.3569 9.14062 37.9688V35.1563ZM16.1719 21.0938C16.1719 20.7063 16.4869 20.3906 16.875 20.3906H28.125C28.5131 20.3906 28.8281 20.7063 28.8281 21.0938V23.9063C28.8281 24.2944 28.5131 24.6094 28.125 24.6094H16.875C16.4869 24.6094 16.1719 24.2944 16.1719 23.9063V21.0938Z" fill="#C62D17"/>
<path d="M23.2031 21.7969H24.6094V23.2031H23.2031V21.7969Z" fill="#C62D17"/>
<path d="M20.3906 21.7969H21.7969V23.2031H20.3906V21.7969Z" fill="#C62D17"/>
<path d="M17.5781 21.7969H18.9844V23.2031H17.5781V21.7969Z" fill="#C62D17"/>
<path d="M26.0156 21.7969H27.4219V23.2031H26.0156V21.7969Z" fill="#C62D17"/>
<path d="M13.3594 35.8594H14.7656V37.2656H13.3594V35.8594Z" fill="#C62D17"/>
<path d="M18.9844 35.8594H20.3906V37.2656H18.9844V35.8594Z" fill="#C62D17"/>
<path d="M16.1719 35.8594H17.5781V37.2656H16.1719V35.8594Z" fill="#C62D17"/>
<path d="M10.5469 35.8594H11.9531V37.2656H10.5469V35.8594Z" fill="#C62D17"/>
</g>
<defs>
<clipPath id="clip0_397_185">
<rect width="45" height="45" fill="white"/>
</clipPath>
</defs>
</svg>
