<svg width="30" height="30" viewBox="0 0 30 30" fill="none" xmlns="http://www.w3.org/2000/svg">
<path d="M6.49991 6.50001C6.49991 6.20334 6.58788 5.91333 6.7527 5.66666C6.91753 5.41998 7.15179 5.22772 7.42588 5.11419C7.69997 5.00066 8.00157 4.97096 8.29254 5.02883C8.58352 5.08671 8.85079 5.22957 9.06057 5.43935C9.27035 5.64913 9.41321 5.91641 9.47109 6.20738C9.52896 6.49835 9.49926 6.79995 9.38573 7.07404C9.2722 7.34813 9.07994 7.5824 8.83326 7.74722C8.58659 7.91204 8.29658 8.00001 7.99991 8.00001C7.60222 7.99958 7.22094 7.8414 6.93973 7.56019C6.65852 7.27898 6.50034 6.8977 6.49991 6.50001ZM3.49991 6.50001C3.49913 5.04501 3.98682 3.63187 4.88481 2.48704C5.78279 1.34221 7.0391 0.531973 8.45241 0.18616C9.86572 -0.159652 11.3542 -0.0210159 12.6793 0.579853C14.0045 1.18072 15.0895 2.20904 15.7606 3.50001H25.4999C25.6325 3.50005 25.7597 3.55274 25.8534 3.64651L28.3534 6.14651C28.3998 6.19293 28.4367 6.24804 28.4618 6.3087C28.487 6.36935 28.4999 6.43437 28.4999 6.50003C28.4999 6.56569 28.487 6.6307 28.4618 6.69136C28.4367 6.75202 28.3998 6.80713 28.3534 6.85354L25.8534 9.35354C25.807 9.39998 25.7519 9.43682 25.6912 9.46196C25.6306 9.48709 25.5656 9.50003 25.4999 9.50003C25.4342 9.50003 25.3692 9.48709 25.3086 9.46196C25.2479 9.43682 25.1928 9.39998 25.1464 9.35354L23.9999 8.20704L22.8534 9.35354C22.807 9.39998 22.7519 9.43682 22.6912 9.46196C22.6306 9.48709 22.5656 9.50003 22.4999 9.50003C22.4342 9.50003 22.3692 9.48709 22.3086 9.46196C22.2479 9.43682 22.1928 9.39998 22.1464 9.35354L20.9999 8.20704L19.8534 9.35354C19.7597 9.4473 19.6325 9.49999 19.4999 9.50001H15.7606C15.0895 10.791 14.0045 11.8193 12.6793 12.4202C11.3542 13.021 9.86572 13.1597 8.45241 12.8139C7.0391 12.4681 5.78279 11.6578 4.88481 10.513C3.98682 9.36815 3.49913 7.95501 3.49991 6.50001ZM5.49991 6.50001C5.49991 6.99447 5.64653 7.47782 5.92123 7.88894C6.19594 8.30006 6.58638 8.62049 7.0432 8.80971C7.50001 8.99893 8.00268 9.04844 8.48763 8.95198C8.97259 8.85551 9.41804 8.61741 9.76768 8.26778C10.1173 7.91815 10.3554 7.47269 10.4519 6.98774C10.5483 6.50279 10.4988 6.00012 10.3096 5.5433C10.1204 5.08649 9.79996 4.69604 9.38883 4.42134C8.97771 4.14664 8.49436 4.00001 7.99991 4.00001C7.33711 4.00079 6.70167 4.26443 6.233 4.7331C5.76433 5.20178 5.50069 5.83721 5.49991 6.50001ZM3.85355 19.5607C3.57224 19.2794 3.19072 19.1213 2.79289 19.1213C2.39507 19.1213 2.01354 19.2794 1.73224 19.5607L0.146408 21.1465C0.0526635 21.2403 0 21.3674 0 21.5C0 21.6326 0.0526635 21.7598 0.146408 21.8535L8.14641 29.8535C8.19282 29.9 8.24793 29.9368 8.30859 29.962C8.36925 29.9871 8.43427 30 8.49992 30C8.56558 30 8.6306 29.9871 8.69125 29.962C8.75191 29.9368 8.80702 29.9 8.85344 29.8535L10.4393 28.2677C10.7206 27.9864 10.8786 27.6049 10.8786 27.2071C10.8786 26.8092 10.7206 26.4277 10.4393 26.1464L3.85355 19.5607ZM29.2999 13.2C29.0772 12.9777 28.8129 12.8015 28.5221 12.6814C28.2312 12.5613 27.9196 12.4996 27.6049 12.5C27.2924 12.4983 26.9827 12.5583 26.6935 12.6767C26.4043 12.7951 26.1414 12.9696 25.9199 13.19L22.3599 16.49C22.7772 17.0771 23.001 17.7797 22.9999 18.5C22.9989 19.428 22.6298 20.3176 21.9737 20.9738C21.3175 21.6299 20.4279 21.999 19.4999 22H14.4999C14.3673 22 14.2401 21.9473 14.1464 21.8536C14.0526 21.7598 13.9999 21.6326 13.9999 21.5C13.9999 21.3674 14.0526 21.2402 14.1464 21.1465C14.2401 21.0527 14.3673 21 14.4999 21H19.4999C20.163 21 20.7988 20.7366 21.2677 20.2678C21.7365 19.7989 21.9999 19.1631 21.9999 18.5C21.9999 17.837 21.7365 17.2011 21.2677 16.7322C20.7988 16.2634 20.163 16 19.4999 16H9.56991C8.84723 15.9976 8.13127 16.1387 7.46352 16.4151C6.79577 16.6914 6.18952 17.0976 5.67991 17.61L4.49491 18.795C4.51772 18.8137 4.53943 18.8338 4.55991 18.855L11.1449 25.44C11.1661 25.4605 11.1862 25.4822 11.2049 25.505L11.2699 25.44C11.409 25.3006 11.5742 25.19 11.7561 25.1145C11.938 25.039 12.133 25.0001 12.3299 25H20.4449C21.3143 24.9992 22.1712 24.7926 22.9455 24.3972C23.7198 24.0018 24.3895 23.4288 24.8999 22.725L29.5299 16.325C29.8712 15.8625 30.0356 15.2932 29.9934 14.7199C29.9512 14.1467 29.7052 13.6075 29.2999 13.2Z" fill="url(#paint0_linear_758_6887)"/>
<defs>
<linearGradient id="paint0_linear_758_6887" x1="15" y1="0" x2="15" y2="30" gradientUnits="userSpaceOnUse">
<stop stop-color="white"/>
<stop offset="1" stop-color="white" stop-opacity="0.75"/>
</linearGradient>
</defs>
</svg>
