<svg width="32" height="24" viewBox="0 0 32 24" fill="none" xmlns="http://www.w3.org/2000/svg">
<path d="M31.3974 7.0823C31.309 7.04392 29.1542 6.11043 16.3966 0.581955C16.1429 0.471949 15.8553 0.471949 15.6016 0.581955L0.600785 7.0823C-0.204132 7.43038 -0.196382 8.57294 0.600785 8.91739C3.51494 10.18 8.279 12.2447 15.6016 15.4177C15.8538 15.5271 16.1414 15.5284 16.3966 15.4177C17.092 15.1164 26.5666 11.0107 26.9997 10.8231V21.4725C26.9997 22.0111 27.4138 22.4745 27.9519 22.4995C28.5262 22.5262 28.9998 22.069 28.9998 21.5006V10.4604C28.9998 10.3033 28.8834 10.1706 28.7275 10.1505C26.8505 9.90863 17.9982 8.76607 15.871 8.49175C15.2557 8.41487 14.8723 7.79183 15.034 7.23731C15.1609 6.76897 15.6056 6.47064 16.056 6.50164C16.1009 6.50427 30.3524 8.34336 30.3422 8.34205C30.6084 8.3763 30.8273 8.54681 30.9324 8.77801C31.006 8.93964 31.1931 9.01371 31.3538 8.93833C31.6229 8.8122 31.8563 8.64619 31.9624 8.27048C32.0991 7.78365 31.8522 7.27893 31.3974 7.0823Z" fill="url(#paint0_linear_758_6882)"/>
<path d="M14.8054 17.2529L6.43482 13.6257C6.22843 13.5362 5.99805 13.6875 5.99805 13.9124V17.5004C5.99805 20.8649 10.3908 23.5007 15.9986 23.5007C21.6064 23.5007 25.9991 20.8649 25.9991 17.5004V13.9124C25.9991 13.6875 25.7687 13.5363 25.5623 13.6257L17.1911 17.2529C16.4311 17.5832 15.5662 17.583 14.8054 17.2529Z" fill="url(#paint1_linear_758_6882)"/>
<defs>
<linearGradient id="paint0_linear_758_6882" x1="16" y1="0.499451" x2="16" y2="22.5006" gradientUnits="userSpaceOnUse">
<stop stop-color="white"/>
<stop offset="1" stop-color="white" stop-opacity="0.75"/>
</linearGradient>
<linearGradient id="paint1_linear_758_6882" x1="15.9986" y1="13.5995" x2="15.9986" y2="23.5007" gradientUnits="userSpaceOnUse">
<stop stop-color="white"/>
<stop offset="1" stop-color="white" stop-opacity="0.75"/>
</linearGradient>
</defs>
</svg>
