<svg width="24" height="24" viewBox="0 0 24 24" fill="none" xmlns="http://www.w3.org/2000/svg">
<path d="M15.3472 12.1105L22.263 16.4842V7.54736L15.3472 12.1105Z" fill="white"/>
<path d="M1.73682 7.54736V16.4842L8.65261 12.1105L1.73682 7.54736Z" fill="white"/>
<path d="M20.9843 4.94214H3.01592C2.38434 4.94214 1.86329 5.41582 1.76855 6.03161L12.0001 12.7737L22.2317 6.03161C22.137 5.41582 21.6001 4.94214 20.9843 4.94214Z" fill="white"/>
<path d="M14.1631 12.8843L12.3473 14.0843C12.2368 14.1474 12.1263 14.1948 12 14.1948C11.8737 14.1948 11.7473 14.1632 11.6526 14.0843L9.83681 12.8843L1.78418 17.9843C1.87892 18.6001 2.39997 19.058 3.03155 19.0738H21C21.6315 19.0738 22.1526 18.6159 22.2473 17.9843L14.1631 12.8843Z" fill="white"/>
</svg>
