<svg width="20" height="20" viewBox="0 0 20 20" fill="none" xmlns="http://www.w3.org/2000/svg">
<g clip-path="url(#clip0_635_440)">
<path d="M14.0625 5.74324V2.34375H9.96094V0.809727L9.63703 0.647773C9.58414 0.621328 8.32656 0 7.03125 0C5.73594 0 4.47836 0.621328 4.42547 0.647773L4.10156 0.809727V2.34375H0V5.74324L7.03125 7.02164L14.0625 5.74324ZM5.27344 1.55594C5.66621 1.40055 6.35852 1.17188 7.03125 1.17188C7.7041 1.17188 8.3966 1.40066 8.78906 1.5559V2.34375H5.27344V1.55594Z" fill="white"/>
<path d="M15.3125 10.625C12.687 10.625 10.625 12.7713 10.625 15.3125C10.625 17.8972 12.7278 20 15.3125 20C17.8972 20 20 17.8972 20 15.3125C20 12.7278 17.8972 10.625 15.3125 10.625ZM17.6562 15.8984H14.7266V12.9688H15.8984V14.7266H17.6562V15.8984Z" fill="white"/>
<path d="M14.0625 9.5878V6.93433L7.61719 8.1062V9.37503H6.44531V8.10624L0 6.93436V12.8907H9.9775C10.7335 11.2318 12.2411 9.98519 14.0625 9.5878Z" fill="white"/>
</g>
<defs>
<clipPath id="clip0_635_440">
<rect width="20" height="20" fill="white"/>
</clipPath>
</defs>
</svg>
