<svg width="36" height="36" viewBox="0 0 36 36" fill="none" xmlns="http://www.w3.org/2000/svg">
<g clip-path="url(#clip0_291_255)">
<path d="M12.8362 4.74756C13.0049 4.96131 13.1006 5.22568 13.1006 5.51818V6.22131C13.1006 6.84006 12.6562 7.35756 12.0431 7.45318L11.0418 7.61068C10.9518 7.80756 10.8843 7.96506 10.8056 8.12256L11.4187 9.00006C11.7843 9.48943 11.7281 10.1701 11.3006 10.6088L10.8224 11.0982C10.3949 11.5313 9.67494 11.5819 9.19119 11.2163L8.38119 10.6144C8.18432 10.6876 8.02682 10.7438 7.86369 10.8057L7.67807 11.8632C7.58807 12.4819 7.07057 12.9263 6.44619 12.9263H5.76557C5.14682 12.9263 4.62369 12.4819 4.53369 11.8632L4.37619 10.8451C4.19057 10.7494 4.03307 10.6876 3.88682 10.6088L3.02057 11.2163C2.53682 11.5819 1.81682 11.5257 1.38932 11.0982L0.911191 10.6088C0.899941 10.5976 0.888691 10.5863 0.877441 10.5751V23.8107H35.6849V6.54756C35.6849 5.55756 34.8806 4.74756 33.8849 4.74756H12.8362ZM26.2406 14.6869C26.2406 15.3507 25.7624 15.9188 25.0987 16.0144L23.9456 16.1944C23.8893 16.2001 23.8499 16.2451 23.8331 16.2901C23.7656 16.4757 23.6924 16.6557 23.6137 16.8357C23.5912 16.8863 23.5912 16.9426 23.6249 16.9876L24.3281 17.9494C24.7162 18.4838 24.6656 19.2151 24.1987 19.6876L23.6418 20.2444C23.1862 20.7113 22.4099 20.7676 21.8812 20.3738L20.9531 19.6819C20.8912 19.6313 20.8462 19.6482 20.8012 19.6707C20.6268 19.7494 20.4524 19.8282 20.2724 19.8901C20.2218 19.9069 20.1881 19.9519 20.1768 20.0026L20.0024 21.1726C19.9012 21.8363 19.3443 22.3201 18.6693 22.3201H17.8931C17.2237 22.3201 16.6612 21.8419 16.5599 21.1726L16.3856 19.9969C16.3799 19.9463 16.3462 19.9069 16.2899 19.8901C16.1099 19.8226 15.9356 19.7438 15.7668 19.6707C15.7274 19.6538 15.6768 19.6369 15.6093 19.6819L14.6812 20.3738C14.1581 20.7619 13.3874 20.7113 12.9206 20.2444L12.3637 19.6876C11.9024 19.2151 11.8462 18.4838 12.2399 17.9494L12.9431 16.9876C12.9712 16.9482 12.9768 16.8863 12.9543 16.8357C12.8699 16.6613 12.7912 16.4757 12.7237 16.2901C12.7068 16.2394 12.6618 16.2001 12.6168 16.1944L11.4637 16.0144C10.8056 15.9188 10.3218 15.3563 10.3218 14.6869V13.8826C10.3218 13.2132 10.7999 12.6507 11.4637 12.5494L12.6168 12.3751C12.6731 12.3694 12.7124 12.3357 12.7293 12.2794C12.7968 12.0938 12.8756 11.9138 12.9599 11.7338C12.9824 11.6832 12.9768 11.6269 12.9487 11.5876L12.2456 10.6201C11.8574 10.0857 11.9081 9.35443 12.3693 8.88756L12.9262 8.32506C13.3874 7.86381 14.1637 7.80193 14.6868 8.19568L15.6206 8.88756C15.6824 8.93818 15.7274 8.92131 15.7724 8.89881C15.9412 8.82006 16.1156 8.74131 16.2956 8.68506C16.3518 8.66256 16.3856 8.61756 16.3912 8.57256L16.5712 7.39693C16.6668 6.74443 17.2349 6.24943 17.8987 6.24943H18.6749C19.3331 6.24943 19.9124 6.73881 20.0081 7.39693L20.1824 8.57256C20.1937 8.62318 20.2331 8.66256 20.2837 8.68506C20.4581 8.74693 20.6324 8.82568 20.8068 8.89881C20.8462 8.92131 20.8912 8.93256 20.9587 8.88756L21.8868 8.19568C22.4156 7.80756 23.1918 7.86381 23.6474 8.32506L24.2043 8.88756C24.6712 9.35443 24.7274 10.0857 24.3337 10.6201L23.6249 11.5819C23.5968 11.6213 23.5912 11.6832 23.6137 11.7338C23.6981 11.9138 23.7712 12.0938 23.8331 12.2794C23.8499 12.3357 23.8949 12.3694 23.9456 12.3751L25.0987 12.5494C25.7568 12.6507 26.2406 13.2076 26.2406 13.8826V14.6869Z" fill="url(#paint0_linear_291_255)"/>
<path d="M24.919 13.7363L23.7715 13.5619C23.2821 13.4831 22.8715 13.1456 22.7084 12.6788C22.6521 12.5269 22.5959 12.3863 22.5284 12.2456C22.3203 11.7956 22.3653 11.2725 22.6521 10.8788L23.3553 9.91127C23.3946 9.85502 23.389 9.7819 23.344 9.72565L22.7871 9.16877C22.714 9.09002 22.6634 9.10127 22.6015 9.1519L21.6678 9.84939C21.2796 10.1419 20.7284 10.1925 20.284 9.97314C20.1546 9.91127 20.014 9.85502 19.8678 9.80439C19.4065 9.63002 19.069 9.23064 18.9959 8.73564L18.8159 7.56002C18.8046 7.49252 18.7428 7.44189 18.6696 7.44189H17.8934C17.8203 7.44189 17.764 7.49814 17.7471 7.56002L17.5728 8.73564C17.4996 9.22502 17.1621 9.63002 16.6953 9.80439C16.5546 9.85502 16.4196 9.91127 16.279 9.97314C15.8346 10.1869 15.289 10.1419 14.8953 9.84939L13.9671 9.1519C13.8996 9.10127 13.849 9.09002 13.7759 9.16315L13.2246 9.72565C13.1684 9.7819 13.1628 9.85502 13.2078 9.91127L13.9109 10.8788C14.2034 11.2725 14.254 11.7956 14.0403 12.24C13.9671 12.3863 13.9165 12.5269 13.8603 12.6788C13.6915 13.1456 13.2865 13.4831 12.7971 13.5619L11.644 13.7363C11.5709 13.7475 11.5259 13.8094 11.5259 13.8825V14.6869C11.5259 14.76 11.5765 14.8163 11.644 14.8331L12.7971 15.0075C13.2809 15.0863 13.6915 15.4238 13.8603 15.8906C13.9165 16.0425 13.9728 16.1831 14.0403 16.3294C14.2484 16.7738 14.2034 17.3025 13.9109 17.6963L13.2078 18.6581C13.1684 18.7144 13.174 18.7988 13.2246 18.8438L13.7759 19.4063C13.849 19.4794 13.8996 19.4681 13.9671 19.4175L14.8953 18.72C15.1259 18.5456 15.4071 18.4556 15.694 18.4556C15.8965 18.4556 16.1046 18.5063 16.2846 18.585C16.4253 18.6525 16.5603 18.7088 16.7009 18.765C17.1678 18.9338 17.5053 19.3388 17.5784 19.8281L17.7528 20.9981C17.764 21.0713 17.8259 21.1219 17.899 21.1219H18.6753C18.7484 21.1219 18.8046 21.0656 18.8215 20.9981L19.0015 19.8281C19.0746 19.3444 19.4121 18.9338 19.8734 18.765C20.0196 18.7088 20.1546 18.6525 20.2896 18.5906C20.7396 18.3769 21.2853 18.4219 21.6846 18.7144L22.6128 19.4119C22.6803 19.4625 22.7253 19.4738 22.7984 19.4006L23.3553 18.8381C23.4059 18.7875 23.4115 18.7088 23.3665 18.6525L22.6634 17.6906C22.3765 17.2969 22.3259 16.7681 22.5396 16.3238C22.6071 16.1775 22.6634 16.0369 22.7196 15.885C22.8828 15.4181 23.2878 15.0806 23.7828 15.0019L24.9303 14.8275C25.0034 14.8163 25.054 14.7544 25.054 14.6813V13.8769C25.0428 13.8094 24.9865 13.7475 24.919 13.7363ZM18.2871 17.6569C16.4253 17.6569 14.9121 16.1438 14.9121 14.2819C14.9121 12.42 16.4253 10.9069 18.2871 10.9069C20.149 10.9069 21.6621 12.42 21.6621 14.2819C21.6621 16.1438 20.1434 17.6569 18.2871 17.6569Z" fill="url(#paint1_linear_291_255)"/>
<path d="M18.2867 27.0452C17.9548 27.0452 17.6904 27.3152 17.6904 27.6414C17.6904 27.9677 17.9548 28.232 18.2867 28.232C18.6129 28.232 18.8773 27.9677 18.8773 27.6414C18.8773 27.3152 18.6073 27.0452 18.2867 27.0452Z" fill="url(#paint2_linear_291_255)"/>
<path d="M14.0059 31.4607V34.7963H10.389C10.0571 34.7963 9.78711 35.0663 9.78711 35.3982C9.78711 35.7301 10.0571 36.0001 10.389 36.0001H25.6046C25.9365 36.0001 26.2065 35.7301 26.2065 35.3982C26.2065 35.0663 25.9365 34.7963 25.6046 34.7963H22.5615V31.4607H14.0059Z" fill="url(#paint3_linear_291_255)"/>
<path d="M1.20395 7.63316L0.87207 7.57129V8.88191L1.40082 8.16191C1.33332 7.95941 1.26582 7.80191 1.20395 7.63316Z" fill="url(#paint4_linear_291_255)"/>
<path d="M35.6908 25.0144H0.883301V28.4625C0.883301 29.4582 1.68768 30.2625 2.6833 30.2625H33.8908C34.8808 30.2625 35.6908 29.4582 35.6908 28.4625V25.0144ZM18.2871 29.43C17.2971 29.43 16.4927 28.6313 16.4927 27.6413C16.4927 26.6513 17.2971 25.8469 18.2871 25.8469C19.2714 25.8469 20.0758 26.6513 20.0758 27.6413C20.0758 28.6313 19.2714 29.43 18.2871 29.43Z" fill="url(#paint5_linear_291_255)"/>
<path d="M18.2865 16.4531C19.4856 16.4531 20.4577 15.481 20.4577 14.2818C20.4577 13.0827 19.4856 12.1106 18.2865 12.1106C17.0873 12.1106 16.1152 13.0827 16.1152 14.2818C16.1152 15.481 17.0873 16.4531 18.2865 16.4531Z" fill="url(#paint6_linear_291_255)"/>
<path d="M1.3502 6.4125C1.80582 6.48562 2.1827 6.795 2.3402 7.22813C2.37957 7.35188 2.4302 7.48125 2.49207 7.59938C2.68895 8.01563 2.64395 8.49938 2.37395 8.865L1.76645 9.70312V9.765L2.2502 10.2544L2.31207 10.26L3.12207 9.65813C3.33582 9.495 3.59457 9.41062 3.85895 9.41062C4.0502 9.41062 4.23582 9.45 4.40457 9.52875C4.51707 9.585 4.64082 9.63562 4.75895 9.68062C5.19207 9.83812 5.50144 10.215 5.56894 10.665L5.72645 11.6831C5.72645 11.7056 5.74895 11.7225 5.76582 11.7225H6.44645C6.46895 11.7225 6.48582 11.7056 6.49707 11.6831L6.64895 10.665C6.72207 10.215 7.02582 9.83812 7.45895 9.68062C7.57707 9.64125 7.70082 9.585 7.81332 9.52875C8.22957 9.33188 8.73582 9.37687 9.10145 9.6525L9.90582 10.2544L10.3952 10.6762L9.9677 10.2487L10.4458 9.765C10.4627 9.74813 10.4627 9.72562 10.4514 9.70312L9.83832 8.865C9.56832 8.49938 9.52895 8.01563 9.7202 7.59938C9.78207 7.48125 9.82707 7.35188 9.8777 7.22813C10.0296 6.795 10.4064 6.48562 10.8621 6.4125L11.8633 6.255C11.8802 6.255 11.8971 6.23813 11.8971 6.21563V5.5125C11.8971 5.49 11.8858 5.47313 11.8633 5.46188L10.8621 5.31C10.4064 5.23687 10.0296 4.9275 9.8777 4.48875C9.82707 4.365 9.78207 4.24125 9.7202 4.12312C9.52895 3.70687 9.56832 3.22312 9.83832 2.8575L10.4514 2.01937C10.4627 2.0025 10.4627 1.98 10.4458 1.9575L9.9677 1.47375L9.54582 0.99L9.9002 1.46812L9.0902 2.07C8.72457 2.34563 8.21832 2.39625 7.8077 2.19375C7.6952 2.13188 7.57145 2.08688 7.45332 2.04188C7.0202 1.88438 6.71645 1.5075 6.64332 1.0575L6.49145 0.03375C6.48582 0.01125 6.46895 0 6.44645 0H5.76582C5.74895 0 5.72645 0.01125 5.72645 0.03375L5.56894 1.06312C5.50144 1.51312 5.19207 1.89 4.75895 2.0475C4.64082 2.08688 4.5227 2.1375 4.40457 2.19375C3.99957 2.39625 3.4877 2.34563 3.12207 2.07L2.31207 1.46812L1.8227 1.05188L2.2502 1.47375L1.76645 1.96313C1.7552 1.98 1.74957 2.0025 1.76645 2.025L2.37395 2.86313C2.63832 3.22875 2.68332 3.7125 2.49207 4.12875C2.4302 4.24688 2.3852 4.37062 2.3402 4.5C2.1827 4.93312 1.80582 5.2425 1.3502 5.31562L0.35457 5.4675C0.33207 5.47313 0.30957 5.49 0.30957 5.5125V6.21563C0.30957 6.23813 0.326445 6.255 0.348945 6.255L1.3502 6.4125ZM6.10895 2.8575C7.7627 2.8575 9.1127 4.2075 9.1127 5.86125C9.1127 7.52625 7.7627 8.87625 6.10895 8.87625C4.44394 8.87625 3.09395 7.52625 3.09395 5.86125C3.09395 4.2075 4.44957 2.8575 6.10895 2.8575Z" fill="url(#paint7_linear_291_255)"/>
<path d="M6.10861 7.67254C7.10424 7.67254 7.91424 6.86254 7.91424 5.86129C7.91424 4.86566 7.10424 4.05566 6.10861 4.05566C5.10736 4.05566 4.29736 4.86566 4.29736 5.86129C4.29736 6.86254 5.10736 7.67254 6.10861 7.67254Z" fill="url(#paint8_linear_291_255)"/>
</g>
<defs>
<linearGradient id="paint0_linear_291_255" x1="18.2812" y1="4.74756" x2="18.2812" y2="23.8107" gradientUnits="userSpaceOnUse">
<stop stop-color="#E31937"/>
<stop offset="1" stop-color="#9B1B08"/>
</linearGradient>
<linearGradient id="paint1_linear_291_255" x1="18.2899" y1="7.44189" x2="18.2899" y2="21.1219" gradientUnits="userSpaceOnUse">
<stop stop-color="#E31937"/>
<stop offset="1" stop-color="#9B1B08"/>
</linearGradient>
<linearGradient id="paint2_linear_291_255" x1="18.2839" y1="27.0452" x2="18.2839" y2="28.232" gradientUnits="userSpaceOnUse">
<stop stop-color="#E31937"/>
<stop offset="1" stop-color="#9B1B08"/>
</linearGradient>
<linearGradient id="paint3_linear_291_255" x1="17.9968" y1="31.4607" x2="17.9968" y2="36.0001" gradientUnits="userSpaceOnUse">
<stop stop-color="#E31937"/>
<stop offset="1" stop-color="#9B1B08"/>
</linearGradient>
<linearGradient id="paint4_linear_291_255" x1="1.13645" y1="7.57129" x2="1.13645" y2="8.88191" gradientUnits="userSpaceOnUse">
<stop stop-color="#E31937"/>
<stop offset="1" stop-color="#9B1B08"/>
</linearGradient>
<linearGradient id="paint5_linear_291_255" x1="18.2871" y1="25.0144" x2="18.2871" y2="30.2625" gradientUnits="userSpaceOnUse">
<stop stop-color="#E31937"/>
<stop offset="1" stop-color="#9B1B08"/>
</linearGradient>
<linearGradient id="paint6_linear_291_255" x1="18.2865" y1="12.1106" x2="18.2865" y2="16.4531" gradientUnits="userSpaceOnUse">
<stop stop-color="#E31937"/>
<stop offset="1" stop-color="#9B1B08"/>
</linearGradient>
<linearGradient id="paint7_linear_291_255" x1="6.10332" y1="0" x2="6.10332" y2="11.7225" gradientUnits="userSpaceOnUse">
<stop stop-color="#E31937"/>
<stop offset="1" stop-color="#9B1B08"/>
</linearGradient>
<linearGradient id="paint8_linear_291_255" x1="6.1058" y1="4.05566" x2="6.1058" y2="7.67254" gradientUnits="userSpaceOnUse">
<stop stop-color="#E31937"/>
<stop offset="1" stop-color="#9B1B08"/>
</linearGradient>
<clipPath id="clip0_291_255">
<rect width="36" height="36" fill="white"/>
</clipPath>
</defs>
</svg>
