<svg width="16" height="14" viewBox="0 0 16 14" fill="none" xmlns="http://www.w3.org/2000/svg">
<path d="M14.9498 5.15195C14.8872 4.95507 14.7666 4.78168 14.6038 4.65454C14.4409 4.52739 14.2435 4.45242 14.0373 4.43945L10.3248 4.1832L8.94978 0.714453C8.8747 0.523455 8.74401 0.359393 8.57464 0.243506C8.40526 0.127618 8.205 0.0652424 7.99978 0.0644531V0.0644531C7.79455 0.0652424 7.59429 0.127618 7.42492 0.243506C7.25555 0.359393 7.12486 0.523455 7.04978 0.714453L5.64978 4.20195L1.96228 4.43945C1.75634 4.45326 1.55929 4.52855 1.39661 4.65557C1.23393 4.7826 1.11311 4.95551 1.04978 5.15195C0.984741 5.3514 0.980941 5.56577 1.03887 5.7674C1.0968 5.96903 1.21379 6.14869 1.37478 6.2832L4.21228 8.6832L3.36853 12.002C3.31015 12.2265 3.32066 12.4633 3.39868 12.6818C3.4767 12.9003 3.61863 13.0902 3.80603 13.227C3.98792 13.3575 4.20463 13.4308 4.42843 13.4375C4.65222 13.4442 4.87292 13.3839 5.06228 13.2645L7.99353 11.4082H8.00603L11.1623 13.402C11.3242 13.5072 11.5129 13.5636 11.706 13.5645C11.8637 13.5632 12.019 13.5258 12.1599 13.4552C12.3009 13.3846 12.4237 13.2826 12.5191 13.157C12.6145 13.0315 12.6798 12.8857 12.71 12.731C12.7403 12.5763 12.7346 12.4167 12.6935 12.2645L11.7998 8.6332L14.6248 6.2832C14.7858 6.14869 14.9028 5.96903 14.9607 5.7674C15.0186 5.56577 15.0148 5.3514 14.9498 5.15195Z" fill="#FA9600"/>
</svg>
