<svg width="36" height="36" viewBox="0 0 36 36" fill="none" xmlns="http://www.w3.org/2000/svg">
<path d="M33.7981 22.4743V20.2021H23.3236C23.3236 23.1422 20.9402 25.5256 18.0001 25.5256C15.06 25.5256 12.6766 23.1423 12.6766 20.2021H2.20215V22.4743L6.75052 22.9559C7.03423 24.1189 7.49359 25.2131 8.09891 26.2087L5.22256 29.7663L8.43591 32.9797L11.9935 30.1033C12.9891 30.7087 14.0833 31.168 15.2463 31.4517L15.728 36.0001H20.2723L20.7539 31.4517C21.9169 31.168 23.0111 30.7087 24.0067 30.1033L27.5643 32.9797L30.7776 29.7663L27.9013 26.2087C28.5066 25.2131 28.966 24.1189 29.2497 22.9559L33.7981 22.4743Z" fill="url(#paint0_linear_291_327)"/>
<path d="M17.9999 0C15.7499 0 13.9194 1.83052 13.9194 4.08044C13.9194 6.33037 15.7499 8.16082 17.9999 8.16082C20.2498 8.16082 22.0803 6.33037 22.0803 4.08044C22.0803 1.83052 20.2498 0 17.9999 0Z" fill="url(#paint1_linear_291_327)"/>
<path d="M22.3443 9.28882H13.6555C11.6552 9.28889 10.0278 10.9162 10.0278 12.9165V18.0925H25.972V12.9165C25.972 10.9162 24.3447 9.28882 22.3443 9.28882Z" fill="url(#paint2_linear_291_327)"/>
<path d="M9.34381 1.88501C7.32823 1.88501 5.68848 3.52484 5.68848 5.54035C5.68848 7.53968 7.30222 9.16833 9.29551 9.19442C10.121 8.22889 11.26 7.53975 12.554 7.28698C12.8376 6.76772 12.9991 6.1726 12.9991 5.54035C12.9991 3.52477 11.3594 1.88501 9.34381 1.88501Z" fill="url(#paint3_linear_291_327)"/>
<path d="M5.45192 10.2061C3.66001 10.2061 2.20215 11.6638 2.20215 13.4558V18.0926H7.91863V12.9165C7.91863 11.9367 8.16598 11.0137 8.60087 10.2061H5.45192Z" fill="url(#paint4_linear_291_327)"/>
<path d="M26.6563 1.88501C24.6407 1.88501 23.001 3.52484 23.001 5.54035C23.001 6.17253 23.1624 6.76772 23.4461 7.28698C24.7402 7.53975 25.8791 8.22889 26.7046 9.19442C28.6979 9.1684 30.3116 7.53968 30.3116 5.54035C30.3116 3.52477 28.6719 1.88501 26.6563 1.88501Z" fill="url(#paint5_linear_291_327)"/>
<path d="M30.5484 10.2061H27.3994C27.8343 11.0137 28.0817 11.9367 28.0817 12.9165V18.0925H33.7981V13.4558C33.7981 11.6638 32.3403 10.2061 30.5484 10.2061Z" fill="url(#paint6_linear_291_327)"/>
<defs>
<linearGradient id="paint0_linear_291_327" x1="18.0001" y1="20.2021" x2="18.0001" y2="36.0001" gradientUnits="userSpaceOnUse">
<stop stop-color="#E31937"/>
<stop offset="1" stop-color="#9B1B08"/>
</linearGradient>
<linearGradient id="paint1_linear_291_327" x1="17.9999" y1="0" x2="17.9999" y2="8.16082" gradientUnits="userSpaceOnUse">
<stop stop-color="#E31937"/>
<stop offset="1" stop-color="#9B1B08"/>
</linearGradient>
<linearGradient id="paint2_linear_291_327" x1="17.9999" y1="9.28882" x2="17.9999" y2="18.0925" gradientUnits="userSpaceOnUse">
<stop stop-color="#E31937"/>
<stop offset="1" stop-color="#9B1B08"/>
</linearGradient>
<linearGradient id="paint3_linear_291_327" x1="9.34381" y1="1.88501" x2="9.34381" y2="9.19442" gradientUnits="userSpaceOnUse">
<stop stop-color="#E31937"/>
<stop offset="1" stop-color="#9B1B08"/>
</linearGradient>
<linearGradient id="paint4_linear_291_327" x1="5.40151" y1="10.2061" x2="5.40151" y2="18.0926" gradientUnits="userSpaceOnUse">
<stop stop-color="#E31937"/>
<stop offset="1" stop-color="#9B1B08"/>
</linearGradient>
<linearGradient id="paint5_linear_291_327" x1="26.6563" y1="1.88501" x2="26.6563" y2="9.19442" gradientUnits="userSpaceOnUse">
<stop stop-color="#E31937"/>
<stop offset="1" stop-color="#9B1B08"/>
</linearGradient>
<linearGradient id="paint6_linear_291_327" x1="30.5988" y1="10.2061" x2="30.5988" y2="18.0925" gradientUnits="userSpaceOnUse">
<stop stop-color="#E31937"/>
<stop offset="1" stop-color="#9B1B08"/>
</linearGradient>
</defs>
</svg>
