<svg width="45" height="46" viewBox="0 0 45 46" fill="none" xmlns="http://www.w3.org/2000/svg">
<g clip-path="url(#clip0_758_5085)">
<path d="M8.90227 22.329C6.0235 22.329 3.68164 20.0084 3.68164 17.1569C3.68164 14.3051 6.0235 11.9845 8.90227 11.9845C11.7807 11.9845 14.1222 14.3047 14.1222 17.1569C14.1222 20.0088 11.7807 22.329 8.90227 22.329ZM8.90227 13.4361C6.82373 13.4361 5.13325 15.1053 5.13325 17.1569C5.13325 19.2082 6.82373 20.8774 8.90227 20.8774C10.9801 20.8774 12.6706 19.2082 12.6706 17.1569C12.6706 15.1053 10.9801 13.4361 8.90227 13.4361Z" fill="#C62D17"/>
<path d="M11.0016 36.6495H1.89709C0.850909 36.6495 0 35.8039 0 34.7645V32.3904C0 27.5302 3.993 23.5758 8.90141 23.5758C10.8318 23.5758 12.6694 24.1783 14.2138 25.3177C14.5363 25.5558 14.6051 26.0102 14.3669 26.333C14.1288 26.6552 13.6748 26.7239 13.3519 26.4861C12.0587 25.5321 10.5199 25.0274 8.90141 25.0274C4.79358 25.0274 1.45161 28.3308 1.45161 32.3904V34.7645C1.45161 35.0034 1.65149 35.1979 1.89709 35.1979H11.0019C11.4024 35.1979 11.7277 35.5229 11.7277 35.9237C11.7277 36.3242 11.4024 36.6495 11.0016 36.6495Z" fill="#C62D17"/>
<path d="M43.1038 36.1002H33.9993C33.5989 36.1002 33.2735 35.7752 33.2735 35.3744C33.2735 34.974 33.5989 34.6486 33.9993 34.6486H43.1042C43.3498 34.6486 43.5497 34.4544 43.5497 34.2155V31.8414C43.5497 27.7811 40.2077 24.4785 36.0999 24.4785C34.3842 24.4785 32.7093 25.0692 31.3835 26.1424C31.0724 26.3943 30.6156 26.3465 30.3629 26.035C30.1109 25.7235 30.1584 25.2663 30.4706 25.014C32.0537 23.7328 34.0529 23.0269 36.0999 23.0269C41.0079 23.0269 45.0009 26.9809 45.0009 31.8414V34.2155C45.0009 35.2546 44.15 36.1002 43.1038 36.1002Z" fill="#C62D17"/>
<path d="M36.0988 21.9704C33.2204 21.9704 30.8789 19.6501 30.8789 16.7983C30.8789 13.9465 33.2204 11.6259 36.0988 11.6259C38.9776 11.6259 41.3195 13.9461 41.3195 16.7983C41.3195 19.6505 38.9772 21.9704 36.0988 21.9704ZM36.0988 13.0775C34.021 13.0775 32.3305 14.7467 32.3305 16.7983C32.3305 18.8499 34.021 20.5188 36.0988 20.5188C38.1774 20.5188 39.8679 18.8499 39.8679 16.7983C39.8679 14.7467 38.177 13.0775 36.0988 13.0775Z" fill="#C62D17"/>
<path d="M32.3505 39.0112H12.6488C11.34 39.0112 10.2754 37.9544 10.2754 36.6552V33.3161C10.2754 26.6428 15.7586 21.2137 22.4996 21.2137C29.2406 21.2137 34.7239 26.6428 34.7239 33.3161V36.6552C34.7239 37.9544 33.6593 39.0112 32.3505 39.0112ZM22.4996 22.6657C16.5596 22.6657 11.727 27.4437 11.727 33.3164V36.6556C11.727 37.1542 12.1406 37.56 12.6488 37.56H32.3501C32.8583 37.56 33.2719 37.1542 33.2719 36.6556V33.3164C33.2723 27.4437 28.4397 22.6657 22.4996 22.6657Z" fill="#C62D17"/>
<path d="M22.2471 20.3656C18.5486 20.3656 15.5391 17.3848 15.5391 13.7203C15.5391 10.0562 18.5483 7.07568 22.2471 7.07568C25.9463 7.07568 28.9555 10.0565 28.9555 13.7206C28.9555 17.3851 25.946 20.3656 22.2471 20.3656ZM22.2471 8.5273C19.3488 8.5273 16.9907 10.8571 16.9907 13.7206C16.9907 16.5845 19.3488 18.9143 22.2471 18.9143C25.1457 18.9143 27.5039 16.5845 27.5039 13.7206C27.5039 10.8571 25.1457 8.5273 22.2471 8.5273Z" fill="#C62D17"/>
</g>
<defs>
<clipPath id="clip0_758_5085">
<rect width="45" height="45" fill="white" transform="translate(0 0.543457)"/>
</clipPath>
</defs>
</svg>
