<svg width="20" height="20" viewBox="0 0 20 20" fill="none" xmlns="http://www.w3.org/2000/svg">
<path d="M17.1112 10.677H15.5645C15.7221 11.1086 15.8082 11.5745 15.8082 12.06V17.9057C15.8082 18.1081 15.773 18.3024 15.7089 18.4831H18.266C19.2212 18.4831 19.9983 17.706 19.9983 16.7508V13.5641C19.9983 11.9722 18.7031 10.677 17.1112 10.677Z" fill="white"/>
<path d="M4.19005 12.0592C4.19005 11.5737 4.27618 11.1079 4.43384 10.6763H2.88712C1.29516 10.6763 0 11.9714 0 13.5634V16.7501C0 17.7053 0.777072 18.4824 1.73227 18.4824H4.28938C4.22528 18.3016 4.19005 18.1074 4.19005 17.905V12.0592Z" fill="white"/>
<path d="M11.7649 9.17261H8.22891C6.63696 9.17261 5.3418 10.4678 5.3418 12.0597V17.9054C5.3418 18.2243 5.60031 18.4829 5.91922 18.4829H14.0746C14.3935 18.4829 14.6521 18.2243 14.6521 17.9054V12.0597C14.6521 10.4678 13.3569 9.17261 11.7649 9.17261Z" fill="white"/>
<path d="M9.99946 1.51709C8.08493 1.51709 6.52734 3.07467 6.52734 4.98924C6.52734 6.28788 7.2441 7.42206 8.30262 8.01753C8.80469 8.29996 9.38352 8.46136 9.99946 8.46136C10.6154 8.46136 11.1942 8.29996 11.6963 8.01753C12.7549 7.42206 13.4716 6.28784 13.4716 4.98924C13.4716 3.07471 11.914 1.51709 9.99946 1.51709Z" fill="white"/>
<path d="M3.90333 4.75366C2.47149 4.75366 1.30664 5.91851 1.30664 7.35035C1.30664 8.78219 2.47149 9.94703 3.90333 9.94703C4.26653 9.94703 4.61239 9.8718 4.92657 9.73656C5.46977 9.50269 5.91767 9.08871 6.19481 8.57015C6.38935 8.20621 6.50001 7.79101 6.50001 7.35035C6.50001 5.91855 5.33516 4.75366 3.90333 4.75366Z" fill="white"/>
<path d="M16.0986 4.75366C14.6668 4.75366 13.502 5.91851 13.502 7.35035C13.502 7.79105 13.6126 8.20625 13.8071 8.57015C14.0843 9.08875 14.5322 9.50273 15.0754 9.73656C15.3896 9.8718 15.7354 9.94703 16.0986 9.94703C17.5305 9.94703 18.6953 8.78219 18.6953 7.35035C18.6953 5.91851 17.5305 4.75366 16.0986 4.75366Z" fill="white"/>
</svg>
