<svg width="32" height="32" viewBox="0 0 32 32" fill="none" xmlns="http://www.w3.org/2000/svg">
<path d="M11 11C10.448 11 10 10.553 10 10V8C10 7.447 10.448 7 11 7C11.552 7 12 7.447 12 8V10C12 10.553 11.552 11 11 11Z" fill="url(#paint0_linear_758_6909)"/>
<path d="M16 7V6C16 5.447 16.448 5 17 5C17.552 5 18 5.447 18 6V7C18 7.553 17.552 8 17 8C16.448 8 16 7.553 16 7Z" fill="url(#paint1_linear_758_6909)"/>
<path d="M20 8C19.448 8 19 7.553 19 7V6C19 5.447 19.448 5 20 5C20.552 5 21 5.447 21 6V7C21 7.553 20.552 8 20 8Z" fill="url(#paint2_linear_758_6909)"/>
<path d="M12 27V18C10.776 16.776 10 15 10 12V11.722C10.295 11.894 10.634 12 11 12C11.6 12 12.133 11.729 12.5 11.309C12.867 11.729 13.4 12 14 12C14.537 12 15.023 11.785 15.383 11.439C15.894 12.365 16.868 13 18 13H19V12H18C16.895 12 16 11.105 16 10V9.5C16 9.224 16.224 9 16.5 9H20C21.105 9 22 9.895 22 11V12C22 15 21.196 16.793 19 18V27H12Z" fill="url(#paint3_linear_758_6909)"/>
<path d="M14 11C13.448 11 13 10.553 13 10V7C13 6.447 13.448 6 14 6C14.552 6 15 6.447 15 7V10C15 10.553 14.552 11 14 11Z" fill="url(#paint4_linear_758_6909)"/>
<path d="M6 23H4C2.343 23 1 21.657 1 20V19H9V20C9 21.657 7.657 23 6 23Z" fill="url(#paint5_linear_758_6909)"/>
<path d="M1.38477 18L4.29077 9.507C4.39377 9.204 4.67877 9 4.99977 9H8.99977V11H6.21977L8.61477 18H7.02977L4.99977 12.067L2.96977 18H1.38477Z" fill="url(#paint6_linear_758_6909)"/>
<path d="M23 19H31V20C31 21.657 29.657 23 28 23H26C24.343 23 23 21.657 23 20V19Z" fill="url(#paint7_linear_758_6909)"/>
<path d="M23.3857 18L25.7807 11H23.0007C23.0007 10.229 22.6997 9.532 22.2207 9H27.0007C27.3217 9 27.6067 9.204 27.7097 9.507L30.6157 18H29.0307L27.0007 12.067L24.9707 18H23.3857Z" fill="url(#paint8_linear_758_6909)"/>
<defs>
<linearGradient id="paint0_linear_758_6909" x1="11" y1="7" x2="11" y2="11" gradientUnits="userSpaceOnUse">
<stop stop-color="white"/>
<stop offset="1" stop-color="white" stop-opacity="0.75"/>
</linearGradient>
<linearGradient id="paint1_linear_758_6909" x1="17" y1="5" x2="17" y2="8" gradientUnits="userSpaceOnUse">
<stop stop-color="white"/>
<stop offset="1" stop-color="white" stop-opacity="0.75"/>
</linearGradient>
<linearGradient id="paint2_linear_758_6909" x1="20" y1="5" x2="20" y2="8" gradientUnits="userSpaceOnUse">
<stop stop-color="white"/>
<stop offset="1" stop-color="white" stop-opacity="0.75"/>
</linearGradient>
<linearGradient id="paint3_linear_758_6909" x1="16" y1="9" x2="16" y2="27" gradientUnits="userSpaceOnUse">
<stop stop-color="white"/>
<stop offset="1" stop-color="white" stop-opacity="0.75"/>
</linearGradient>
<linearGradient id="paint4_linear_758_6909" x1="14" y1="6" x2="14" y2="11" gradientUnits="userSpaceOnUse">
<stop stop-color="white"/>
<stop offset="1" stop-color="white" stop-opacity="0.75"/>
</linearGradient>
<linearGradient id="paint5_linear_758_6909" x1="5" y1="19" x2="5" y2="23" gradientUnits="userSpaceOnUse">
<stop stop-color="white"/>
<stop offset="1" stop-color="white" stop-opacity="0.75"/>
</linearGradient>
<linearGradient id="paint6_linear_758_6909" x1="5.19227" y1="9" x2="5.19227" y2="18" gradientUnits="userSpaceOnUse">
<stop stop-color="white"/>
<stop offset="1" stop-color="white" stop-opacity="0.75"/>
</linearGradient>
<linearGradient id="paint7_linear_758_6909" x1="27" y1="19" x2="27" y2="23" gradientUnits="userSpaceOnUse">
<stop stop-color="white"/>
<stop offset="1" stop-color="white" stop-opacity="0.75"/>
</linearGradient>
<linearGradient id="paint8_linear_758_6909" x1="26.4182" y1="9" x2="26.4182" y2="18" gradientUnits="userSpaceOnUse">
<stop stop-color="white"/>
<stop offset="1" stop-color="white" stop-opacity="0.75"/>
</linearGradient>
</defs>
</svg>
