<svg width="44" height="44" viewBox="0 0 44 44" fill="none" xmlns="http://www.w3.org/2000/svg">
<path d="M38.3365 21.4933H37.1401V19.8323C36.3101 -0.249177 7.69011 -0.250353 6.85987 19.8323V21.4933H5.66348C4.89107 21.494 4.1505 21.8012 3.60429 22.3473C3.05808 22.8935 2.75084 23.634 2.75 24.4064V27.9809C2.75082 28.7534 3.05802 29.494 3.60422 30.0402C4.15042 30.5865 4.891 30.8938 5.66348 30.8947H6.85987V34.259C6.86093 35.2145 7.24098 36.1306 7.91663 36.8063C8.59228 37.4819 9.50836 37.8619 10.4639 37.863H16.5999C16.7303 38.2806 16.9903 38.6458 17.3423 38.9056C17.6943 39.1654 18.12 39.3063 18.5574 39.3078H21.4572C24.1978 39.2474 24.1962 35.1013 21.4571 35.0425H18.5575C18.1199 35.044 17.6941 35.185 17.3421 35.4449C16.99 35.7049 16.73 36.0702 16.5997 36.488H10.4639C9.87292 36.4874 9.30634 36.2523 8.88845 35.8344C8.47057 35.4166 8.23552 34.85 8.23487 34.259V32.701C10.1453 33.926 12.957 32.6058 12.9141 30.2373L12.9141 22.1505C12.912 21.749 12.8276 21.3522 12.666 20.9847C12.5045 20.6171 12.2692 20.2866 11.9749 20.0135C11.6805 19.7405 11.3332 19.5307 10.9546 19.3972C10.5759 19.2637 10.1739 19.2093 9.77336 19.2374C9.23134 19.2392 8.70079 19.3936 8.24242 19.6829C8.2799 16.0588 9.74585 12.5958 12.3218 10.0464C14.8978 7.4969 18.3757 6.06682 22 6.06682C25.6242 6.06681 29.1021 7.49688 31.6781 10.0463C34.2541 12.5958 35.7201 16.0587 35.7575 19.6828C35.2992 19.3936 34.7686 19.2392 34.2266 19.2374C33.8261 19.2093 33.4241 19.2637 33.0454 19.3972C32.6667 19.5307 32.3195 19.7405 32.0251 20.0135C31.7307 20.2866 31.4955 20.6171 31.3339 20.9847C31.1724 21.3522 31.088 21.749 31.0859 22.1505V30.2374C31.1153 30.964 31.4043 31.6559 31.9004 32.1875C32.3966 32.7192 33.0669 33.0553 33.7897 33.1348C34.5125 33.2143 35.2398 33.032 35.8397 32.621C36.4395 32.2099 36.8721 31.5974 37.0588 30.8947L38.3365 30.8947C39.109 30.8938 39.8496 30.5865 40.3958 30.0402C40.942 29.494 41.2492 28.7534 41.25 27.9809V24.4064C41.2492 23.634 40.9419 22.8935 40.3957 22.3473C39.8495 21.8012 39.1089 21.494 38.3365 21.4933ZM6.85987 29.5197H5.66348C5.25554 29.5192 4.86446 29.3569 4.57603 29.0684C4.28761 28.7799 4.1254 28.3888 4.125 27.9809V24.4064C4.12554 23.9986 4.28781 23.6076 4.57623 23.3193C4.86464 23.0309 5.25565 22.8687 5.66348 22.8683H6.85987V29.5197ZM18.5575 36.4175H21.4572C21.5592 36.4198 21.6595 36.4439 21.7514 36.4883C21.8432 36.5326 21.9245 36.5962 21.9897 36.6747C22.0548 36.7532 22.1024 36.8447 22.1291 36.9432C22.1559 37.0416 22.1612 37.1447 22.1446 37.2453C22.1445 37.4276 22.072 37.6024 21.9431 37.7313C21.8142 37.8602 21.6395 37.9327 21.4572 37.9328H18.5575C18.4555 37.9306 18.3552 37.9064 18.2633 37.8621C18.1714 37.8177 18.0902 37.7541 18.025 37.6757C17.9598 37.5972 17.9122 37.5056 17.8855 37.4072C17.8588 37.3087 17.8535 37.2057 17.87 37.105C17.8701 36.9227 17.9426 36.748 18.0715 36.6191C18.2004 36.4902 18.3752 36.4177 18.5575 36.4175ZM9.77338 20.6124C9.99267 20.5851 10.2153 20.6043 10.4266 20.6688C10.638 20.7333 10.8334 20.8417 11 20.9868C11.1667 21.132 11.3008 21.3107 11.3937 21.5112C11.4866 21.7117 11.5361 21.9296 11.5391 22.1505V30.2374C11.5217 32.29 8.25275 32.2927 8.23487 30.2374C8.22963 30.2258 8.23865 22.1994 8.23487 22.1808C8.23127 21.9763 8.26838 21.7732 8.34404 21.5833C8.41971 21.3933 8.53242 21.2203 8.67561 21.0743C8.8188 20.9284 8.9896 20.8123 9.17807 20.733C9.36654 20.6537 9.5689 20.6127 9.77338 20.6124ZM35.7651 30.2374C35.7621 30.4584 35.7126 30.6762 35.6197 30.8768C35.5268 31.0773 35.3926 31.256 35.226 31.4011C35.0594 31.5463 34.864 31.6546 34.6526 31.7191C34.4412 31.7837 34.2186 31.8029 33.9994 31.7755C33.5915 31.7751 33.2005 31.6129 32.9121 31.3246C32.6237 31.0362 32.4614 30.6452 32.4609 30.2374V22.1505C32.4614 21.7427 32.6237 21.3517 32.9121 21.0634C33.2005 20.775 33.5915 20.6129 33.9994 20.6124C34.2212 20.5848 34.4463 20.6048 34.6598 20.6711C34.8733 20.7374 35.0701 20.8485 35.2372 20.9969C35.4044 21.1453 35.5379 21.3277 35.6289 21.5319C35.72 21.736 35.7664 21.9572 35.7651 22.1808C35.7651 22.1808 35.7701 30.2084 35.7651 30.2374ZM39.875 27.9809C39.8746 28.3888 39.7124 28.7799 39.424 29.0684C39.1355 29.3569 38.7445 29.5192 38.3365 29.5197H37.1401C37.1424 27.9048 37.1385 24.458 37.1401 22.8683H38.3365C38.7444 22.8687 39.1354 23.0309 39.4238 23.3193C39.7122 23.6076 39.8745 23.9986 39.875 24.4064V27.9809Z" fill="#C22726"/>
<path d="M21.9992 13.9441C20.692 13.9429 19.414 14.3314 18.3286 15.06C17.2431 15.7885 16.3995 16.8242 15.9055 18.0345C15.4115 19.2448 15.2895 20.575 15.5551 21.855C15.8207 23.135 16.4618 24.3068 17.3966 25.2207V29.0711C17.3986 29.2057 17.4399 29.3368 17.5153 29.4482C17.5908 29.5597 17.697 29.6468 17.8212 29.6988C17.9453 29.7508 18.082 29.7655 18.2143 29.7411C18.3467 29.7166 18.4691 29.6541 18.5664 29.5612L21.1217 27.0462C22.0149 27.1665 22.9233 27.102 23.7906 26.8568C24.6579 26.6115 25.4655 26.1907 26.1634 25.6205C26.8614 25.0503 27.4347 24.3428 27.848 23.5418C28.2612 22.7409 28.5055 21.8636 28.5658 20.9643C28.626 20.0651 28.5009 19.163 28.1981 18.3141C27.8954 17.4652 27.4215 16.6876 26.8058 16.0294C26.1901 15.3712 25.4458 14.8464 24.619 14.4877C23.7922 14.129 22.9005 13.944 21.9992 13.9441ZM21.018 25.6356C20.9086 25.6149 20.7959 25.621 20.6893 25.6532C20.5827 25.6855 20.4856 25.743 20.406 25.8209L18.7716 27.4296V24.9226C18.7716 24.8257 18.7511 24.7299 18.7115 24.6415C18.6719 24.5531 18.614 24.4741 18.5416 24.4097C17.9931 23.9219 17.5538 23.3237 17.2525 22.6544C16.9512 21.9851 16.7946 21.2597 16.793 20.5257C17.0364 13.6364 26.9618 13.6351 27.2055 20.5258C27.2062 21.2927 27.0372 22.0504 26.7106 22.7443C26.3841 23.4383 25.9081 24.0514 25.3167 24.5398C24.7254 25.0282 24.0333 25.3797 23.2901 25.5691C22.5469 25.7586 21.771 25.7813 21.018 25.6356Z" fill="#C22726"/>
<path d="M19.5217 19.9246C19.3321 19.9273 19.1513 20.0045 19.0182 20.1396C18.8851 20.2746 18.8105 20.4565 18.8105 20.6461C18.8106 20.8357 18.8852 21.0176 19.0182 21.1527C19.1513 21.2877 19.3322 21.3649 19.5217 21.3676C19.7113 21.3649 19.8921 21.2876 20.0252 21.1526C20.1583 21.0176 20.2329 20.8356 20.2329 20.6461C20.2329 20.4565 20.1583 20.2745 20.0252 20.1395C19.8921 20.0045 19.7112 19.9273 19.5217 19.9246Z" fill="#C22726"/>
<path d="M22.0002 19.9246C21.8106 19.9273 21.6298 20.0045 21.4967 20.1396C21.3637 20.2746 21.2891 20.4565 21.2891 20.6461C21.2891 20.8357 21.3637 21.0176 21.4968 21.1527C21.6298 21.2877 21.8107 21.3649 22.0002 21.3676C22.1898 21.3649 22.3707 21.2876 22.5037 21.1526C22.6368 21.0176 22.7114 20.8356 22.7114 20.6461C22.7114 20.4565 22.6368 20.2745 22.5037 20.1395C22.3706 20.0045 22.1898 19.9273 22.0002 19.9246Z" fill="#C22726"/>
<path d="M24.4768 19.9246C24.2872 19.9273 24.1064 20.0045 23.9733 20.1396C23.8402 20.2746 23.7656 20.4565 23.7656 20.6461C23.7656 20.8357 23.8402 21.0176 23.9733 21.1527C24.1064 21.2877 24.2873 21.3649 24.4768 21.3676C24.6664 21.3649 24.8472 21.2876 24.9803 21.1526C25.1134 21.0176 25.1879 20.8356 25.1879 20.6461C25.1879 20.4565 25.1133 20.2745 24.9803 20.1395C24.8472 20.0045 24.6663 19.9273 24.4768 19.9246Z" fill="#C22726"/>
</svg>
