<svg width="16" height="16" viewBox="0 0 16 16" fill="none" xmlns="http://www.w3.org/2000/svg">
<g clip-path="url(#clip0_639_3157)">
<path d="M4.29697 5.8544H5.9162V10.6578C5.9162 11.1452 6.31134 11.5398 6.79819 11.5398H9.20565C9.69246 11.5398 10.0876 11.1452 10.0876 10.6578V5.8544H11.7063C11.9745 5.8544 12.2155 5.69294 12.3186 5.44513C12.4207 5.19833 12.3639 4.91302 12.1744 4.72356L8.46995 1.01861C8.21121 0.760399 7.79207 0.760399 7.53278 1.01861L3.82891 4.72356C3.63941 4.91302 3.58263 5.19785 3.68523 5.44513C3.78827 5.69245 4.02881 5.8544 4.29697 5.8544Z" fill="#444444"/>
<path d="M15.2044 7.65479C14.7655 7.65479 14.4094 8.01093 14.4094 8.45032V11.7768C14.4094 12.7732 13.5982 13.5839 12.6017 13.5839H3.39824C2.40172 13.5839 1.59108 12.7732 1.59108 11.7768V8.45032C1.59108 8.01093 1.23445 7.65479 0.79554 7.65479C0.356109 7.65479 0 8.01093 0 8.45036V11.7768C0 13.6505 1.52442 15.175 3.39824 15.175H12.6017C14.4755 15.175 16 13.6506 16 11.7768V8.45036C16 8.01093 15.6439 7.65479 15.2044 7.65479Z" fill="#444444"/>
</g>
<defs>
<clipPath id="clip0_639_3157">
<rect width="16" height="16" fill="white"/>
</clipPath>
</defs>
</svg>
