<svg width="20" height="20" viewBox="0 0 20 20" fill="none" xmlns="http://www.w3.org/2000/svg">
<g clip-path="url(#clip0_635_448)">
<path d="M2.92578 14.0186V19.9622H16.9584V14.0186L10.5268 15.1879V16.454H9.3574V15.1879L2.92578 14.0186Z" fill="white"/>
<path d="M12.8656 7.90688L12.5423 7.74527C12.4896 7.71889 11.2347 7.09888 9.94209 7.09888C8.64953 7.09888 7.39463 7.71889 7.34185 7.74527L7.01863 7.90688V9.43765H2.92578V12.8299L9.94209 14.1056L16.9584 12.8299V9.43765H12.8656V7.90688ZM11.6962 9.43761H8.18802V8.65147C8.57992 8.49641 9.27083 8.26822 9.94209 8.26822C10.6135 8.26822 11.3045 8.49653 11.6962 8.65143V9.43761Z" fill="white"/>
<path d="M1.20571 8.38092L3.1566 7.77015L5.10753 8.38092L5.12951 6.33679L6.31324 4.67011L4.37592 4.01751L3.1566 2.37671L1.93732 4.01751L0 4.67011L1.18373 6.33679L1.20571 8.38092Z" fill="white"/>
<path d="M9.9418 0.0378418L8.72248 1.67865L6.78516 2.33124L7.96893 3.99793L7.99091 6.04205L9.9418 5.43128L11.8927 6.04205L11.9147 3.99789L13.0984 2.33124L11.1611 1.67865L9.9418 0.0378418Z" fill="white"/>
<path d="M16.8441 2.37671L15.6248 4.01751L13.6875 4.67011L14.8712 6.33675L14.8932 8.38092L16.8441 7.77015L18.795 8.38092L18.817 6.33679L20.0007 4.67011L18.0634 4.01751L16.8441 2.37671Z" fill="white"/>
</g>
<defs>
<clipPath id="clip0_635_448">
<rect width="20" height="20" fill="white"/>
</clipPath>
</defs>
</svg>
